  0
SECTION
  2
HEADER
  9
$ACADVER
  1
AC1024
  9
$ACADMAINTVER
 70
6
  9
$DWGCODEPAGE
  3
ANSI_1252
  9
$LASTSAVEDBY
  1
ezdxf
  9
$INSBASE
 10
0.0
 20
0.0
 30
0.0
  9
$EXTMIN
 10
1e+20
 20
1e+20
 30
1e+20
  9
$EXTMAX
 10
-1e+20
 20
-1e+20
 30
-1e+20
  9
$LIMMIN
 10
0.0
 20
0.0
  9
$LIMMAX
 10
420.0
 20
297.0
  9
$ORTHOMODE
 70
0
  9
$REGENMODE
 70
1
  9
$FILLMODE
 70
1
  9
$QTEXTMODE
 70
0
  9
$MIRRTEXT
 70
1
  9
$LTSCALE
 40
1.0
  9
$ATTMODE
 70
1
  9
$TEXTSIZE
 40
2.5
  9
$TRACEWID
 40
1.0
  9
$TEXTSTYLE
  7
Standard
  9
$CLAYER
  8
0
  9
$CELTYPE
  6
ByLayer
  9
$CECOLOR
 62
256
  9
$CELTSCALE
 40
1.0
  9
$DISPSILH
 70
0
  9
$DIMSCALE
 40
1.0
  9
$DIMASZ
 40
2.5
  9
$DIMEXO
 40
0.625
  9
$DIMDLI
 40
3.75
  9
$DIMRND
 40
0.0
  9
$DIMDLE
 40
0.0
  9
$DIMEXE
 40
1.25
  9
$DIMTP
 40
0.0
  9
$DIMTM
 40
0.0
  9
$DIMTXT
 40
2.5
  9
$DIMCEN
 40
2.5
  9
$DIMTSZ
 40
0.0
  9
$DIMTOL
 70
0
  9
$DIMLIM
 70
0
  9
$DIMTIH
 70
0
  9
$DIMTOH
 70
0
  9
$DIMSE1
 70
0
  9
$DIMSE2
 70
0
  9
$DIMTAD
 70
1
  9
$DIMZIN
 70
8
  9
$DIMBLK
  1

  9
$DIMASO
 70
1
  9
$DIMSHO
 70
1
  9
$DIMPOST
  1

  9
$DIMAPOST
  1

  9
$DIMALT
 70
0
  9
$DIMALTD
 70
3
  9
$DIMALTF
 40
0.03937007874
  9
$DIMLFAC
 40
1.0
  9
$DIMTOFL
 70
1
  9
$DIMTVP
 40
0.0
  9
$DIMTIX
 70
0
  9
$DIMSOXD
 70
0
  9
$DIMSAH
 70
0
  9
$DIMBLK1
  1

  9
$DIMBLK2
  1

  9
$DIMSTYLE
  2
ISO-25
  9
$DIMCLRD
 70
0
  9
$DIMCLRE
 70
0
  9
$DIMCLRT
 70
0
  9
$DIMTFAC
 40
1.0
  9
$DIMGAP
 40
0.625
  9
$DIMJUST
 70
0
  9
$DIMSD1
 70
0
  9
$DIMSD2
 70
0
  9
$DIMTOLJ
 70
0
  9
$DIMTZIN
 70
8
  9
$DIMALTZ
 70
0
  9
$DIMALTTZ
 70
0
  9
$DIMUPT
 70
0
  9
$DIMDEC
 70
2
  9
$DIMTDEC
 70
2
  9
$DIMALTU
 70
2
  9
$DIMALTTD
 70
3
  9
$DIMTXSTY
  7
Standard
  9
$DIMAUNIT
 70
0
  9
$DIMADEC
 70
0
  9
$DIMALTRND
 40
0.0
  9
$DIMAZIN
 70
0
  9
$DIMDSEP
 70
46
  9
$DIMATFIT
 70
3
  9
$DIMFRAC
 70
0
  9
$DIMLDRBLK
  1

  9
$DIMLUNIT
 70
2
  9
$DIMLWD
 70
-2
  9
$DIMLWE
 70
-2
  9
$DIMTMOVE
 70
0
  9
$DIMFXL
 40
1.0
  9
$DIMFXLON
 70
0
  9
$DIMJOGANG
 40
0.785398163397
  9
$DIMTFILL
 70
0
  9
$DIMTFILLCLR
 70
0
  9
$DIMARCSYM
 70
0
  9
$DIMLTYPE
  6

  9
$DIMLTEX1
  6

  9
$DIMLTEX2
  6

  9
$DIMTXTDIRECTION
 70
0
  9
$LUNITS
 70
2
  9
$LUPREC
 70
4
  9
$SKETCHINC
 40
1.0
  9
$FILLETRAD
 40
10.0
  9
$AUNITS
 70
0
  9
$AUPREC
 70
2
  9
$MENU
  1
.
  9
$ELEVATION
 40
0.0
  9
$PELEVATION
 40
0.0
  9
$THICKNESS
 40
0.0
  9
$LIMCHECK
 70
0
  9
$CHAMFERA
 40
0.0
  9
$CHAMFERB
 40
0.0
  9
$CHAMFERC
 40
0.0
  9
$CHAMFERD
 40
0.0
  9
$SKPOLY
 70
0
  9
$TDCREATE
 40
2461322.517708333
  9
$TDUCREATE
 40
2458532.153996898
  9
$TDUPDATE
 40
2461322.517708333
  9
$TDUUPDATE
 40
2458532.1544311
  9
$TDINDWG
 40
0.0
  9
$TDUSRTIMER
 40
0.0
  9
$USRTIMER
 70
1
  9
$ANGBASE
 50
0.0
  9
$ANGDIR
 70
0
  9
$PDMODE
 70
0
  9
$PDSIZE
 40
0.0
  9
$PLINEWID
 40
0.0
  9
$SPLFRAME
 70
0
  9
$SPLINETYPE
 70
6
  9
$SPLINESEGS
 70
8
  9
$HANDSEED
  5
1E4
  9
$SURFTAB1
 70
6
  9
$SURFTAB2
 70
6
  9
$SURFTYPE
 70
6
  9
$SURFU
 70
6
  9
$SURFV
 70
6
  9
$UCSBASE
  2

  9
$UCSNAME
  2

  9
$UCSORG
 10
0.0
 20
0.0
 30
0.0
  9
$UCSXDIR
 10
1.0
 20
0.0
 30
0.0
  9
$UCSYDIR
 10
0.0
 20
1.0
 30
0.0
  9
$UCSORTHOREF
  2

  9
$UCSORTHOVIEW
 70
0
  9
$UCSORGTOP
 10
0.0
 20
0.0
 30
0.0
  9
$UCSORGBOTTOM
 10
0.0
 20
0.0
 30
0.0
  9
$UCSORGLEFT
 10
0.0
 20
0.0
 30
0.0
  9
$UCSORGRIGHT
 10
0.0
 20
0.0
 30
0.0
  9
$UCSORGFRONT
 10
0.0
 20
0.0
 30
0.0
  9
$UCSORGBACK
 10
0.0
 20
0.0
 30
0.0
  9
$PUCSBASE
  2

  9
$PUCSNAME
  2

  9
$PUCSORG
 10
0.0
 20
0.0
 30
0.0
  9
$PUCSXDIR
 10
1.0
 20
0.0
 30
0.0
  9
$PUCSYDIR
 10
0.0
 20
1.0
 30
0.0
  9
$PUCSORTHOREF
  2

  9
$PUCSORTHOVIEW
 70
0
  9
$PUCSORGTOP
 10
0.0
 20
0.0
 30
0.0
  9
$PUCSORGBOTTOM
 10
0.0
 20
0.0
 30
0.0
  9
$PUCSORGLEFT
 10
0.0
 20
0.0
 30
0.0
  9
$PUCSORGRIGHT
 10
0.0
 20
0.0
 30
0.0
  9
$PUCSORGFRONT
 10
0.0
 20
0.0
 30
0.0
  9
$PUCSORGBACK
 10
0.0
 20
0.0
 30
0.0
  9
$USERI1
 70
0
  9
$USERI2
 70
0
  9
$USERI3
 70
0
  9
$USERI4
 70
0
  9
$USERI5
 70
0
  9
$USERR1
 40
0.0
  9
$USERR2
 40
0.0
  9
$USERR3
 40
0.0
  9
$USERR4
 40
0.0
  9
$USERR5
 40
0.0
  9
$WORLDVIEW
 70
1
  9
$SHADEDGE
 70
3
  9
$SHADEDIF
 70
70
  9
$TILEMODE
 70
1
  9
$MAXACTVP
 70
64
  9
$PINSBASE
 10
0.0
 20
0.0
 30
0.0
  9
$PLIMCHECK
 70
0
  9
$PEXTMIN
 10
1e+20
 20
1e+20
 30
1e+20
  9
$PEXTMAX
 10
-1e+20
 20
-1e+20
 30
-1e+20
  9
$PLIMMIN
 10
0.0
 20
0.0
  9
$PLIMMAX
 10
420.0
 20
297.0
  9
$UNITMODE
 70
0
  9
$VISRETAIN
 70
1
  9
$PLINEGEN
 70
0
  9
$PSLTSCALE
 70
1
  9
$TREEDEPTH
 70
3020
  9
$CMLSTYLE
  2
Standard
  9
$CMLJUST
 70
0
  9
$CMLSCALE
 40
20.0
  9
$PROXYGRAPHICS
 70
1
  9
$MEASUREMENT
 70
1
  9
$CELWEIGHT
370
-1
  9
$ENDCAPS
280
0
  9
$JOINSTYLE
280
0
  9
$LWDISPLAY
290
0
  9
$INSUNITS
 70
6
  9
$HYPERLINKBASE
  1

  9
$STYLESHEET
  1

  9
$XEDIT
290
1
  9
$CEPSNTYPE
380
0
  9
$PSTYLEMODE
290
1
  9
$FINGERPRINTGUID
  2
{3EF8F4BC-B9A0-477A-A4D5-21DAAB7ED001}
  9
$VERSIONGUID
  2
{A3AD36DA-6CE3-40F0-93B8-F4F83ADB1B47}
  9
$EXTNAMES
290
1
  9
$PSVPSCALE
 40
0.0
  9
$OLESTARTUP
290
0
  9
$SORTENTS
280
127
  9
$INDEXCTL
280
0
  9
$HIDETEXT
280
1
  9
$XCLIPFRAME
280
1
  9
$HALOGAP
280
0
  9
$OBSCOLOR
 70
257
  9
$OBSLTYPE
280
0
  9
$INTERSECTIONDISPLAY
280
0
  9
$INTERSECTIONCOLOR
 70
257
  9
$DIMASSOC
280
2
  9
$PROJECTNAME
  1

  9
$CAMERADISPLAY
290
0
  9
$LENSLENGTH
 40
50.0
  9
$CAMERAHEIGHT
 40
0.0
  9
$STEPSPERSEC
 40
24.0
  9
$STEPSIZE
 40
100.0
  9
$3DDWFPREC
 40
2.0
  9
$PSOLWIDTH
 40
0.005
  9
$PSOLHEIGHT
 40
0.08
  9
$LOFTANG1
 40
1.570796326795
  9
$LOFTANG2
 40
1.570796326795
  9
$LOFTMAG1
 40
0.0
  9
$LOFTMAG2
 40
0.0
  9
$LOFTPARAM
 70
7
  9
$LOFTNORMALS
280
1
  9
$LATITUDE
 40
37.795
  9
$LONGITUDE
 40
-122.394
  9
$NORTHDIRECTION
 40
0.0
  9
$TIMEZONE
 70
-8000
  9
$LIGHTGLYPHDISPLAY
280
1
  9
$TILEMODELIGHTSYNCH
280
1
  9
$CMATERIAL
347
20
  9
$SOLIDHIST
280
0
  9
$SHOWHIST
280
1
  9
$DWFFRAME
280
2
  9
$DGNFRAME
280
2
  9
$REALWORLDSCALE
290
1
  9
$INTERFERECOLOR
 62
256
  9
$CSHADOW
280
0
  9
$SHADOWPLANELOCATION
 40
0.0
  0
ENDSEC
  0
SECTION
  2
CLASSES
  0
CLASS
  1
ACDBDICTIONARYWDFLT
  2
AcDbDictionaryWithDefault
  3
ObjectDBX Classes
 90
0
 91
0
280
0
281
0
  0
CLASS
  1
SUN
  2
AcDbSun
  3
SCENEOE
 90
1153
 91
0
280
0
281
0
  0
CLASS
  1
VISUALSTYLE
  2
AcDbVisualStyle
  3
ObjectDBX Classes
 90
4095
 91
0
280
0
281
0
  0
CLASS
  1
MATERIAL
  2
AcDbMaterial
  3
ObjectDBX Classes
 90
1153
 91
0
280
0
281
0
  0
CLASS
  1
SCALE
  2
AcDbScale
  3
ObjectDBX Classes
 90
1153
 91
0
280
0
281
0
  0
CLASS
  1
TABLESTYLE
  2
AcDbTableStyle
  3
ObjectDBX Classes
 90
4095
 91
0
280
0
281
0
  0
CLASS
  1
MLEADERSTYLE
  2
AcDbMLeaderStyle
  3
ACDB_MLEADERSTYLE_CLASS
 90
4095
 91
0
280
0
281
0
  0
CLASS
  1
DICTIONARYVAR
  2
AcDbDictionaryVar
  3
ObjectDBX Classes
 90
0
 91
0
280
0
281
0
  0
CLASS
  1
CELLSTYLEMAP
  2
AcDbCellStyleMap
  3
ObjectDBX Classes
 90
1152
 91
0
280
0
281
0
  0
CLASS
  1
MENTALRAYRENDERSETTINGS
  2
AcDbMentalRayRenderSettings
  3
SCENEOE
 90
1024
 91
0
280
0
281
0
  0
CLASS
  1
ACDBDETAILVIEWSTYLE
  2
AcDbDetailViewStyle
  3
ObjectDBX Classes
 90
1025
 91
0
280
0
281
0
  0
CLASS
  1
ACDBSECTIONVIEWSTYLE
  2
AcDbSectionViewStyle
  3
ObjectDBX Classes
 90
1025
 91
0
280
0
281
0
  0
CLASS
  1
RASTERVARIABLES
  2
AcDbRasterVariables
  3
ISM
 90
0
 91
0
280
0
281
0
  0
CLASS
  1
ACDBPLACEHOLDER
  2
AcDbPlaceHolder
  3
ObjectDBX Classes
 90
0
 91
0
280
0
281
0
  0
CLASS
  1
LAYOUT
  2
AcDbLayout
  3
ObjectDBX Classes
 90
0
 91
0
280
0
281
0
  0
ENDSEC
  0
SECTION
  2
TABLES
  0
TABLE
  2
VPORT
  5
8
330
0
100
AcDbSymbolTable
 70
1
  0
VPORT
  5
23
330
8
100
AcDbSymbolTableRecord
100
AcDbViewportTableRecord
  2
*Active
 70
0
 10
0.0
 20
0.0
 11
1.0
 21
1.0
 12
0.0
 22
0.0
 13
0.0
 23
0.0
 14
0.5
 24
0.5
 15
0.5
 25
0.5
 16
0.0
 26
0.0
 36
1.0
 17
0.0
 27
0.0
 37
0.0
 40
1000.0
 41
1.34
 42
50.0
 43
0.0
 44
0.0
 50
0.0
 51
0.0
 71
0
 72
1000
 73
1
 74
3
 75
0
 76
0
 77
0
 78
0
281
0
 65
0
146
0.0
  0
ENDTAB
  0
TABLE
  2
LTYPE
  5
2
330
0
100
AcDbSymbolTable
 70
8
  0
LTYPE
  5
24
330
2
100
AcDbSymbolTableRecord
100
AcDbLinetypeTableRecord
  2
ByBlock
 70
0
  3

 72
65
 73
0
 40
0.0
  0
LTYPE
  5
25
330
2
100
AcDbSymbolTableRecord
100
AcDbLinetypeTableRecord
  2
ByLayer
 70
0
  3

 72
65
 73
0
 40
0.0
  0
LTYPE
  5
26
330
2
100
AcDbSymbolTableRecord
100
AcDbLinetypeTableRecord
  2
Continuous
 70
0
  3

 72
65
 73
0
 40
0.0
  0
LTYPE
  5
32
330
2
100
AcDbSymbolTableRecord
100
AcDbLinetypeTableRecord
  2
CENTER
 70
0
  3
Center ____ _ ____ _ ____ _ ____ _ ____ _ ____
 72
65
 73
4
 40
2.0
 49
1.25
 74
0
 49
-0.25
 74
0
 49
0.25
 74
0
 49
-0.25
 74
0
  0
LTYPE
  5
33
330
2
100
AcDbSymbolTableRecord
100
AcDbLinetypeTableRecord
  2
HIDDEN
 70
0
  3
Hidden __ __ __ __ __ __ __ __ __
 72
65
 73
2
 40
7.5
 49
5.0
 74
0
 49
-2.5
 74
0
  0
LTYPE
  5
34
330
2
100
AcDbSymbolTableRecord
100
AcDbLinetypeTableRecord
  2
PHANTOM
 70
0
  3
Phantom ______  __  __  ______  __  __  ______
 72
65
 73
6
 40
2.5
 49
1.25
 74
0
 49
-0.25
 74
0
 49
0.25
 74
0
 49
-0.25
 74
0
 49
0.25
 74
0
 49
-0.25
 74
0
  0
LTYPE
  5
35
330
2
100
AcDbSymbolTableRecord
100
AcDbLinetypeTableRecord
  2
DASHED
 70
0
  3
Dashed __ __ __ __ __ __ __ __ __ __ __ __ __ _
 72
65
 73
2
 40
0.6
 49
0.5
 74
0
 49
-0.1
 74
0
  0
LTYPE
  5
36
330
2
100
AcDbSymbolTableRecord
100
AcDbLinetypeTableRecord
  2
DASHDOT
 70
0
  3
Dash dot __ . __ . __ . __ . __ . __ . __ . __
 72
65
 73
4
 40
1.4
 49
1.0
 74
0
 49
-0.2
 74
0
 49
0.0
 74
0
 49
-0.2
 74
0
  0
ENDTAB
  0
TABLE
  2
LAYER
  5
1
330
0
100
AcDbSymbolTable
 70
20
  0
LAYER
  5
27
330
1
100
AcDbSymbolTableRecord
100
AcDbLayerTableRecord
  2
0
 70
0
 62
7
  6
Continuous
370
-3
390
13
347
21
  0
LAYER
  5
28
330
1
100
AcDbSymbolTableRecord
100
AcDbLayerTableRecord
  2
Defpoints
 70
0
 62
7
  6
Continuous
290
0
370
-3
390
13
347
21
  0
LAYER
  5
37
330
1
100
AcDbSymbolTableRecord
100
AcDbLayerTableRecord
  2
A-WALL-E-N
 70
0
 62
7
  6
Continuous
370
50
390
13
347
21
  0
LAYER
  5
38
330
1
100
AcDbSymbolTableRecord
100
AcDbLayerTableRecord
  2
A-WALL-H-N
 70
0
 62
8
  6
Continuous
370
13
390
13
347
21
  0
LAYER
  5
39
330
1
100
AcDbSymbolTableRecord
100
AcDbLayerTableRecord
  2
A-DOOR-E-N
 70
0
 62
3
  6
Continuous
370
25
390
13
347
21
  0
LAYER
  5
3A
330
1
100
AcDbSymbolTableRecord
100
AcDbLayerTableRecord
  2
A-WIND-E-N
 70
0
 62
4
  6
Continuous
370
25
390
13
347
21
  0
LAYER
  5
3B
330
1
100
AcDbSymbolTableRecord
100
AcDbLayerTableRecord
  2
A-STAIR-E-N
 70
0
 62
6
  6
Continuous
370
25
390
13
347
21
  0
LAYER
  5
3C
330
1
100
AcDbSymbolTableRecord
100
AcDbLayerTableRecord
  2
A-FURN-E-N
 70
0
 62
5
  6
Continuous
370
18
390
13
347
21
  0
LAYER
  5
3D
330
1
100
AcDbSymbolTableRecord
100
AcDbLayerTableRecord
  2
A-SANR-E-N
 70
0
 62
5
  6
Continuous
370
18
390
13
347
21
  0
LAYER
  5
3E
330
1
100
AcDbSymbolTableRecord
100
AcDbLayerTableRecord
  2
A-GRID-E-N
 70
0
 62
1
  6
CENTER
370
18
390
13
347
21
  0
LAYER
  5
3F
330
1
100
AcDbSymbolTableRecord
100
AcDbLayerTableRecord
  2
A-ROOM-T-N
 70
0
 62
7
  6
Continuous
370
25
390
13
347
21
  0
LAYER
  5
40
330
1
100
AcDbSymbolTableRecord
100
AcDbLayerTableRecord
  2
A-DIMEN-T-N
 70
0
 62
2
  6
Continuous
370
18
390
13
347
21
  0
LAYER
  5
41
330
1
100
AcDbSymbolTableRecord
100
AcDbLayerTableRecord
  2
A-SYMB-T-N
 70
0
 62
7
  6
Continuous
370
25
390
13
347
21
  0
LAYER
  5
42
330
1
100
AcDbSymbolTableRecord
100
AcDbLayerTableRecord
  2
A-OVHD-E-N
 70
0
 62
3
  6
HIDDEN
370
18
390
13
347
21
  0
LAYER
  5
43
330
1
100
AcDbSymbolTableRecord
100
AcDbLayerTableRecord
  2
A-CONST-E-N
 70
0
 62
250
  6
Continuous
370
5
390
13
347
21
  0
LAYER
  5
17A
330
1
100
AcDbSymbolTableRecord
100
AcDbLayerTableRecord
  2
SITIO
 70
0
 62
3
  6
Continuous
370
-3
390
13
347
21
  0
LAYER
  5
1DB
330
1
100
AcDbSymbolTableRecord
100
AcDbLayerTableRecord
  2
SITIO-PAVIMENTO
 70
0
 62
8
  6
Continuous
370
-3
390
13
347
21
  0
LAYER
  5
1DE
330
1
100
AcDbSymbolTableRecord
100
AcDbLayerTableRecord
  2
SITIO-DECK
 70
0
 62
30
  6
Continuous
370
-3
390
13
347
21
  0
LAYER
  5
1E0
330
1
100
AcDbSymbolTableRecord
100
AcDbLayerTableRecord
  2
SITIO-PILETA
 70
0
 62
5
  6
Continuous
370
-3
390
13
347
21
  0
LAYER
  5
1E2
330
1
100
AcDbSymbolTableRecord
100
AcDbLayerTableRecord
  2
SITIO-CERCO
 70
0
 62
34
  6
Continuous
370
-3
390
13
347
21
  0
ENDTAB
  0
TABLE
  2
STYLE
  5
5
330
0
100
AcDbSymbolTable
 70
1
  0
STYLE
  5
29
330
5
100
AcDbSymbolTableRecord
100
AcDbTextStyleTableRecord
  2
Standard
 70
0
 40
0.0
 41
1.0
 50
0.0
 71
0
 42
2.5
  3
arial.ttf
  4

  0
ENDTAB
  0
TABLE
  2
VIEW
  5
7
330
0
100
AcDbSymbolTable
 70
0
  0
ENDTAB
  0
TABLE
  2
UCS
  5
6
330
0
100
AcDbSymbolTable
 70
0
  0
ENDTAB
  0
TABLE
  2
APPID
  5
3
330
0
100
AcDbSymbolTable
 70
5
  0
APPID
  5
2A
330
3
100
AcDbSymbolTableRecord
100
AcDbRegAppTableRecord
  2
ACAD
 70
0
  0
APPID
  5
2F
330
3
100
AcDbSymbolTableRecord
100
AcDbRegAppTableRecord
  2
HATCHBACKGROUNDCOLOR
 70
0
  0
APPID
  5
30
330
3
100
AcDbSymbolTableRecord
100
AcDbRegAppTableRecord
  2
EZDXF
 70
0
  0
APPID
  5
73
330
3
100
AcDbSymbolTableRecord
100
AcDbRegAppTableRecord
  2
ACADMCP_ARCH
 70
0
  0
APPID
  5
74
330
3
100
AcDbSymbolTableRecord
100
AcDbRegAppTableRecord
  2
ACADMCP_ARCH_H
 70
0
  0
ENDTAB
  0
TABLE
  2
DIMSTYLE
  5
4
330
0
100
AcDbSymbolTable
 70
1
100
AcDbDimStyleTable
  0
DIMSTYLE
105
2B
330
4
100
AcDbSymbolTableRecord
100
AcDbDimStyleTableRecord
  2
Standard
 70
0
 40
1.0
 41
2.5
 42
0.625
 43
3.75
 44
1.25
 45
0.0
 46
0.0
 47
0.0
 48
0.0
 49
2.5
140
2.5
141
2.5
142
0.0
143
0.03937007874
144
1.0
145
0.0
146
1.0
147
0.625
148
0.0
 69
0
 70
0
 71
0
 72
0
 73
0
 74
0
 75
0
 76
0
 77
1
 78
8
 79
3
170
0
171
3
172
1
173
0
174
0
175
0
176
0
177
0
178
0
179
2
271
2
272
2
273
2
274
3
275
0
276
0
277
2
278
46
279
0
280
0
281
0
282
0
283
0
284
8
285
0
286
0
288
0
289
3
290
0
371
-2
372
-2
  0
ENDTAB
  0
TABLE
  2
BLOCK_RECORD
  5
9
330
0
100
AcDbSymbolTable
 70
30
  0
BLOCK_RECORD
  5
17
330
9
100
AcDbSymbolTableRecord
100
AcDbBlockTableRecord
  2
*Model_Space
340
1A
 70
0
280
1
281
0
  0
BLOCK_RECORD
  5
1B
330
9
100
AcDbSymbolTableRecord
100
AcDbBlockTableRecord
  2
*Paper_Space
340
1E
 70
0
280
1
281
0
  0
BLOCK_RECORD
  5
D1
330
9
100
AcDbSymbolTableRecord
100
AcDbBlockTableRecord
  2
ARCH_DOUBLE_BED
340
0
 70
0
280
1
281
0
  0
BLOCK_RECORD
  5
DC
330
9
100
AcDbSymbolTableRecord
100
AcDbBlockTableRecord
  2
ARCH_WARDROBE
340
0
 70
0
280
1
281
0
  0
BLOCK_RECORD
  5
E5
330
9
100
AcDbSymbolTableRecord
100
AcDbBlockTableRecord
  2
ARCH_SINGLE_BED
340
0
 70
0
280
1
281
0
  0
BLOCK_RECORD
  5
EF
330
9
100
AcDbSymbolTableRecord
100
AcDbBlockTableRecord
  2
ARCH_NIGHTSTAND
340
0
 70
0
280
1
281
0
  0
BLOCK_RECORD
  5
F7
330
9
100
AcDbSymbolTableRecord
100
AcDbBlockTableRecord
  2
ARCH_DESK
340
0
 70
0
280
1
281
0
  0
BLOCK_RECORD
  5
103
330
9
100
AcDbSymbolTableRecord
100
AcDbBlockTableRecord
  2
ARCH_BATHTUB
340
0
 70
0
280
1
281
0
  0
BLOCK_RECORD
  5
10D
330
9
100
AcDbSymbolTableRecord
100
AcDbBlockTableRecord
  2
ARCH_WC
340
0
 70
0
280
1
281
0
  0
BLOCK_RECORD
  5
118
330
9
100
AcDbSymbolTableRecord
100
AcDbBlockTableRecord
  2
ARCH_WALL_BASIN
340
0
 70
0
280
1
281
0
  0
BLOCK_RECORD
  5
124
330
9
100
AcDbSymbolTableRecord
100
AcDbBlockTableRecord
  2
ARCH_KITCHEN_COUNTER
340
0
 70
0
280
1
281
0
  0
BLOCK_RECORD
  5
12F
330
9
100
AcDbSymbolTableRecord
100
AcDbBlockTableRecord
  2
ARCH_FRIDGE
340
0
 70
0
280
1
281
0
  0
BLOCK_RECORD
  5
138
330
9
100
AcDbSymbolTableRecord
100
AcDbBlockTableRecord
  2
ARCH_DINING_TABLE_4
340
0
 70
0
280
1
281
0
  0
BLOCK_RECORD
  5
148
330
9
100
AcDbSymbolTableRecord
100
AcDbBlockTableRecord
  2
ARCH_SOFA_3_SEAT
340
0
 70
0
280
1
281
0
  0
BLOCK_RECORD
  5
155
330
9
100
AcDbSymbolTableRecord
100
AcDbBlockTableRecord
  2
ARCH_COFFEE_TABLE
340
0
 70
0
280
1
281
0
  0
BLOCK_RECORD
  5
15D
330
9
100
AcDbSymbolTableRecord
100
AcDbBlockTableRecord
  2
ARCH_ARMCHAIR
340
0
 70
0
280
1
281
0
  0
BLOCK_RECORD
  5
168
330
9
100
AcDbSymbolTableRecord
100
AcDbBlockTableRecord
  2
ARCH_BOOKSHELF
340
0
 70
0
280
1
281
0
  0
BLOCK_RECORD
  5
171
330
9
100
AcDbSymbolTableRecord
100
AcDbBlockTableRecord
  2
ARCH_WASHING_MACHINE
340
0
 70
0
280
1
281
0
  0
BLOCK_RECORD
  5
17B
330
9
100
AcDbSymbolTableRecord
100
AcDbBlockTableRecord
  2
SITIO_AUTO
340
0
 70
0
280
1
281
0
  0
BLOCK_RECORD
  5
180
330
9
100
AcDbSymbolTableRecord
100
AcDbBlockTableRecord
  2
SITIO_SUV
340
0
 70
0
280
1
281
0
  0
BLOCK_RECORD
  5
185
330
9
100
AcDbSymbolTableRecord
100
AcDbBlockTableRecord
  2
SITIO_ARBOL
340
0
 70
0
280
1
281
0
  0
BLOCK_RECORD
  5
18A
330
9
100
AcDbSymbolTableRecord
100
AcDbBlockTableRecord
  2
SITIO_PALMERA
340
0
 70
0
280
1
281
0
  0
BLOCK_RECORD
  5
18F
330
9
100
AcDbSymbolTableRecord
100
AcDbBlockTableRecord
  2
SITIO_PINO
340
0
 70
0
280
1
281
0
  0
BLOCK_RECORD
  5
194
330
9
100
AcDbSymbolTableRecord
100
AcDbBlockTableRecord
  2
SITIO_ARBUSTO
340
0
 70
0
280
1
281
0
  0
BLOCK_RECORD
  5
198
330
9
100
AcDbSymbolTableRecord
100
AcDbBlockTableRecord
  2
SITIO_MACETA
340
0
 70
0
280
1
281
0
  0
BLOCK_RECORD
  5
19C
330
9
100
AcDbSymbolTableRecord
100
AcDbBlockTableRecord
  2
SITIO_REPOSERA
340
0
 70
0
280
1
281
0
  0
BLOCK_RECORD
  5
1A0
330
9
100
AcDbSymbolTableRecord
100
AcDbBlockTableRecord
  2
SITIO_PARRILLA
340
0
 70
0
280
1
281
0
  0
BLOCK_RECORD
  5
1A4
330
9
100
AcDbSymbolTableRecord
100
AcDbBlockTableRecord
  2
SITIO_MESA_JARDIN
340
0
 70
0
280
1
281
0
  0
BLOCK_RECORD
  5
1A9
330
9
100
AcDbSymbolTableRecord
100
AcDbBlockTableRecord
  2
SITIO_PERSONA
340
0
 70
0
280
1
281
0
  0
BLOCK_RECORD
  5
1AD
330
9
100
AcDbSymbolTableRecord
100
AcDbBlockTableRecord
  2
SITIO_FAROLA
340
0
 70
0
280
1
281
0
  0
ENDTAB
  0
ENDSEC
  0
SECTION
  2
BLOCKS
  0
BLOCK
  5
18
330
17
100
AcDbEntity
  8
0
100
AcDbBlockBegin
  2
*Model_Space
 70
0
 10
0.0
 20
0.0
 30
0.0
  3
*Model_Space
  1

  0
ENDBLK
  5
19
330
17
100
AcDbEntity
  8
0
100
AcDbBlockEnd
  0
BLOCK
  5
1C
330
1B
100
AcDbEntity
  8
0
100
AcDbBlockBegin
  2
*Paper_Space
 70
0
 10
0.0
 20
0.0
 30
0.0
  3
*Paper_Space
  1

  0
ENDBLK
  5
1D
330
1B
100
AcDbEntity
  8
0
100
AcDbBlockEnd
  0
BLOCK
  5
D2
330
D1
100
AcDbEntity
  8
0
100
AcDbBlockBegin
  2
ARCH_DOUBLE_BED
 70
2
 10
0.0
 20
0.0
 30
0.0
  3
ARCH_DOUBLE_BED
  1

  0
LWPOLYLINE
  5
D4
330
D1
100
AcDbEntity
  8
0
  6
ByBlock
 62
0
100
AcDbPolyline
 90
4
 70
1
 10
0.0
 20
0.0
 10
1600.0
 20
0.0
 10
1600.0
 20
2000.0
 10
0.0
 20
2000.0
  0
LWPOLYLINE
  5
D5
330
D1
100
AcDbEntity
  8
0
  6
ByBlock
 62
0
100
AcDbPolyline
 90
4
 70
1
 10
100.0
 20
50.0
 10
750.0
 20
50.0
 10
750.0
 20
450.0
 10
100.0
 20
450.0
  0
LWPOLYLINE
  5
D6
330
D1
100
AcDbEntity
  8
0
  6
ByBlock
 62
0
100
AcDbPolyline
 90
4
 70
1
 10
850.0
 20
50.0
 10
1500.0
 20
50.0
 10
1500.0
 20
450.0
 10
850.0
 20
450.0
  0
LINE
  5
D7
330
D1
100
AcDbEntity
  8
0
  6
ByBlock
 62
0
100
AcDbLine
 10
0.0
 20
700.0
 30
0.0
 11
1600.0
 21
700.0
 31
0.0
  0
ATTDEF
  5
D8
330
D1
100
AcDbEntity
  8
0
 62
0
100
AcDbText
 10
800.0
 20
1000.0
 30
0.0
 40
100.0
  1
double_bed
 72
1
 11
800.0
 21
1000.0
 31
0.0
100
AcDbAttributeDefinition
  3
Catalogue item
  2
ITEM
 70
1
 74
2
  0
ENDBLK
  5
D3
330
D1
100
AcDbEntity
  8
0
100
AcDbBlockEnd
  0
BLOCK
  5
DD
330
DC
100
AcDbEntity
  8
0
100
AcDbBlockBegin
  2
ARCH_WARDROBE
 70
2
 10
0.0
 20
0.0
 30
0.0
  3
ARCH_WARDROBE
  1

  0
LWPOLYLINE
  5
DF
330
DC
100
AcDbEntity
  8
0
  6
ByBlock
 62
0
100
AcDbPolyline
 90
4
 70
1
 10
0.0
 20
0.0
 10
1200.0
 20
0.0
 10
1200.0
 20
600.0
 10
0.0
 20
600.0
  0
LINE
  5
E0
330
DC
100
AcDbEntity
  8
0
  6
ByBlock
 62
0
100
AcDbLine
 10
50.0
 20
300.0
 30
0.0
 11
1150.0
 21
300.0
 31
0.0
  0
ATTDEF
  5
E1
330
DC
100
AcDbEntity
  8
0
 62
0
100
AcDbText
 10
600.0
 20
300.0
 30
0.0
 40
100.0
  1
wardrobe
 72
1
 11
600.0
 21
300.0
 31
0.0
100
AcDbAttributeDefinition
  3
Catalogue item
  2
ITEM
 70
1
 74
2
  0
ENDBLK
  5
DE
330
DC
100
AcDbEntity
  8
0
100
AcDbBlockEnd
  0
BLOCK
  5
E6
330
E5
100
AcDbEntity
  8
0
100
AcDbBlockBegin
  2
ARCH_SINGLE_BED
 70
2
 10
0.0
 20
0.0
 30
0.0
  3
ARCH_SINGLE_BED
  1

  0
LWPOLYLINE
  5
E8
330
E5
100
AcDbEntity
  8
0
  6
ByBlock
 62
0
100
AcDbPolyline
 90
4
 70
1
 10
0.0
 20
0.0
 10
900.0
 20
0.0
 10
900.0
 20
2000.0
 10
0.0
 20
2000.0
  0
LWPOLYLINE
  5
E9
330
E5
100
AcDbEntity
  8
0
  6
ByBlock
 62
0
100
AcDbPolyline
 90
4
 70
1
 10
100.0
 20
50.0
 10
800.0
 20
50.0
 10
800.0
 20
450.0
 10
100.0
 20
450.0
  0
LINE
  5
EA
330
E5
100
AcDbEntity
  8
0
  6
ByBlock
 62
0
100
AcDbLine
 10
0.0
 20
700.0
 30
0.0
 11
900.0
 21
700.0
 31
0.0
  0
ATTDEF
  5
EB
330
E5
100
AcDbEntity
  8
0
 62
0
100
AcDbText
 10
450.0
 20
1000.0
 30
0.0
 40
100.0
  1
single_bed
 72
1
 11
450.0
 21
1000.0
 31
0.0
100
AcDbAttributeDefinition
  3
Catalogue item
  2
ITEM
 70
1
 74
2
  0
ENDBLK
  5
E7
330
E5
100
AcDbEntity
  8
0
100
AcDbBlockEnd
  0
BLOCK
  5
F0
330
EF
100
AcDbEntity
  8
0
100
AcDbBlockBegin
  2
ARCH_NIGHTSTAND
 70
2
 10
0.0
 20
0.0
 30
0.0
  3
ARCH_NIGHTSTAND
  1

  0
LWPOLYLINE
  5
F2
330
EF
100
AcDbEntity
  8
0
  6
ByBlock
 62
0
100
AcDbPolyline
 90
4
 70
1
 10
0.0
 20
0.0
 10
500.0
 20
0.0
 10
500.0
 20
400.0
 10
0.0
 20
400.0
  0
ATTDEF
  5
F3
330
EF
100
AcDbEntity
  8
0
 62
0
100
AcDbText
 10
250.0
 20
200.0
 30
0.0
 40
100.0
  1
nightstand
 72
1
 11
250.0
 21
200.0
 31
0.0
100
AcDbAttributeDefinition
  3
Catalogue item
  2
ITEM
 70
1
 74
2
  0
ENDBLK
  5
F1
330
EF
100
AcDbEntity
  8
0
100
AcDbBlockEnd
  0
BLOCK
  5
F8
330
F7
100
AcDbEntity
  8
0
100
AcDbBlockBegin
  2
ARCH_DESK
 70
2
 10
0.0
 20
0.0
 30
0.0
  3
ARCH_DESK
  1

  0
LWPOLYLINE
  5
FA
330
F7
100
AcDbEntity
  8
0
  6
ByBlock
 62
0
100
AcDbPolyline
 90
4
 70
1
 10
0.0
 20
0.0
 10
1400.0
 20
0.0
 10
1400.0
 20
700.0
 10
0.0
 20
700.0
  0
LINE
  5
FB
330
F7
100
AcDbEntity
  8
0
  6
ByBlock
 62
0
100
AcDbLine
 10
1000.0
 20
0.0
 30
0.0
 11
1000.0
 21
700.0
 31
0.0
  0
ATTDEF
  5
FC
330
F7
100
AcDbEntity
  8
0
 62
0
100
AcDbText
 10
700.0
 20
350.0
 30
0.0
 40
100.0
  1
desk
 72
1
 11
700.0
 21
350.0
 31
0.0
100
AcDbAttributeDefinition
  3
Catalogue item
  2
ITEM
 70
1
 74
2
  0
ENDBLK
  5
F9
330
F7
100
AcDbEntity
  8
0
100
AcDbBlockEnd
  0
BLOCK
  5
104
330
103
100
AcDbEntity
  8
0
100
AcDbBlockBegin
  2
ARCH_BATHTUB
 70
2
 10
0.0
 20
0.0
 30
0.0
  3
ARCH_BATHTUB
  1

  0
LWPOLYLINE
  5
106
330
103
100
AcDbEntity
  8
0
  6
ByBlock
 62
0
100
AcDbPolyline
 90
4
 70
1
 10
0.0
 20
0.0
 10
1700.0
 20
0.0
 10
1700.0
 20
700.0
 10
0.0
 20
700.0
  0
LWPOLYLINE
  5
107
330
103
100
AcDbEntity
  8
0
  6
ByBlock
 62
0
100
AcDbPolyline
 90
4
 70
1
 10
60.0
 20
60.0
 10
1640.0
 20
60.0
 10
1640.0
 20
640.0
 10
60.0
 20
640.0
  0
CIRCLE
  5
108
330
103
100
AcDbEntity
  8
0
  6
ByBlock
 62
0
100
AcDbCircle
 10
200.0
 20
350.0
 30
0.0
 40
25.0
  0
ATTDEF
  5
109
330
103
100
AcDbEntity
  8
0
 62
0
100
AcDbText
 10
850.0
 20
350.0
 30
0.0
 40
100.0
  1
bathtub
 72
1
 11
850.0
 21
350.0
 31
0.0
100
AcDbAttributeDefinition
  3
Catalogue item
  2
ITEM
 70
1
 74
2
  0
ENDBLK
  5
105
330
103
100
AcDbEntity
  8
0
100
AcDbBlockEnd
  0
BLOCK
  5
10E
330
10D
100
AcDbEntity
  8
0
100
AcDbBlockBegin
  2
ARCH_WC
 70
2
 10
0.0
 20
0.0
 30
0.0
  3
ARCH_WC
  1

  0
LWPOLYLINE
  5
110
330
10D
100
AcDbEntity
  8
0
  6
ByBlock
 62
0
100
AcDbPolyline
 90
4
 70
1
 10
0.0
 20
0.0
 10
380.0
 20
0.0
 10
380.0
 20
180.0
 10
0.0
 20
180.0
  0
LINE
  5
111
330
10D
100
AcDbEntity
  8
0
  6
ByBlock
 62
0
100
AcDbLine
 10
40.0
 20
180.0
 30
0.0
 11
40.0
 21
530.0
 31
0.0
  0
LINE
  5
112
330
10D
100
AcDbEntity
  8
0
  6
ByBlock
 62
0
100
AcDbLine
 10
340.0
 20
180.0
 30
0.0
 11
340.0
 21
530.0
 31
0.0
  0
ARC
  5
113
330
10D
100
AcDbEntity
  8
0
  6
ByBlock
 62
0
100
AcDbCircle
 10
190.0
 20
530.0
 30
0.0
 40
150.0
100
AcDbArc
 50
0.0
 51
180.0
  0
ATTDEF
  5
114
330
10D
100
AcDbEntity
  8
0
 62
0
100
AcDbText
 10
190.0
 20
350.0
 30
0.0
 40
100.0
  1
wc
 72
1
 11
190.0
 21
350.0
 31
0.0
100
AcDbAttributeDefinition
  3
Catalogue item
  2
ITEM
 70
1
 74
2
  0
ENDBLK
  5
10F
330
10D
100
AcDbEntity
  8
0
100
AcDbBlockEnd
  0
BLOCK
  5
119
330
118
100
AcDbEntity
  8
0
100
AcDbBlockBegin
  2
ARCH_WALL_BASIN
 70
2
 10
0.0
 20
0.0
 30
0.0
  3
ARCH_WALL_BASIN
  1

  0
LWPOLYLINE
  5
11B
330
118
100
AcDbEntity
  8
0
  6
ByBlock
 62
0
100
AcDbPolyline
 90
4
 70
0
 10
0.0
 20
175.0
 10
0.0
 20
0.0
 10
550.0
 20
0.0
 10
550.0
 20
175.0
  0
ARC
  5
11C
330
118
100
AcDbEntity
  8
0
  6
ByBlock
 62
0
100
AcDbCircle
 10
275.0
 20
175.0
 30
0.0
 40
275.0
100
AcDbArc
 50
0.0
 51
180.0
  0
CIRCLE
  5
11D
330
118
100
AcDbEntity
  8
0
  6
ByBlock
 62
0
100
AcDbCircle
 10
275.0
 20
225.0
 30
0.0
 40
150.0
  0
CIRCLE
  5
11E
330
118
100
AcDbEntity
  8
0
  6
ByBlock
 62
0
100
AcDbCircle
 10
275.0
 20
225.0
 30
0.0
 40
20.0
  0
CIRCLE
  5
11F
330
118
100
AcDbEntity
  8
0
  6
ByBlock
 62
0
100
AcDbCircle
 10
275.0
 20
50.0
 30
0.0
 40
15.0
  0
ATTDEF
  5
120
330
118
100
AcDbEntity
  8
0
 62
0
100
AcDbText
 10
275.0
 20
225.0
 30
0.0
 40
100.0
  1
wall_basin
 72
1
 11
275.0
 21
225.0
 31
0.0
100
AcDbAttributeDefinition
  3
Catalogue item
  2
ITEM
 70
1
 74
2
  0
ENDBLK
  5
11A
330
118
100
AcDbEntity
  8
0
100
AcDbBlockEnd
  0
BLOCK
  5
125
330
124
100
AcDbEntity
  8
0
100
AcDbBlockBegin
  2
ARCH_KITCHEN_COUNTER
 70
2
 10
0.0
 20
0.0
 30
0.0
  3
ARCH_KITCHEN_COUNTER
  1

  0
LWPOLYLINE
  5
127
330
124
100
AcDbEntity
  8
0
  6
ByBlock
 62
0
100
AcDbPolyline
 90
4
 70
1
 10
0.0
 20
0.0
 10
2400.0
 20
0.0
 10
2400.0
 20
600.0
 10
0.0
 20
600.0
  0
LINE
  5
128
330
124
100
AcDbEntity
  8
0
  6
ByBlock
 62
0
100
AcDbLine
 10
600.0
 20
0.0
 30
0.0
 11
600.0
 21
600.0
 31
0.0
  0
LINE
  5
129
330
124
100
AcDbEntity
  8
0
  6
ByBlock
 62
0
100
AcDbLine
 10
1200.0
 20
0.0
 30
0.0
 11
1200.0
 21
600.0
 31
0.0
  0
LINE
  5
12A
330
124
100
AcDbEntity
  8
0
  6
ByBlock
 62
0
100
AcDbLine
 10
1800.0
 20
0.0
 30
0.0
 11
1800.0
 21
600.0
 31
0.0
  0
ATTDEF
  5
12B
330
124
100
AcDbEntity
  8
0
 62
0
100
AcDbText
 10
1200.0
 20
300.0
 30
0.0
 40
100.0
  1
kitchen_counter
 72
1
 11
1200.0
 21
300.0
 31
0.0
100
AcDbAttributeDefinition
  3
Catalogue item
  2
ITEM
 70
1
 74
2
  0
ENDBLK
  5
126
330
124
100
AcDbEntity
  8
0
100
AcDbBlockEnd
  0
BLOCK
  5
130
330
12F
100
AcDbEntity
  8
0
100
AcDbBlockBegin
  2
ARCH_FRIDGE
 70
2
 10
0.0
 20
0.0
 30
0.0
  3
ARCH_FRIDGE
  1

  0
LWPOLYLINE
  5
132
330
12F
100
AcDbEntity
  8
0
  6
ByBlock
 62
0
100
AcDbPolyline
 90
4
 70
1
 10
0.0
 20
0.0
 10
600.0
 20
0.0
 10
600.0
 20
650.0
 10
0.0
 20
650.0
  0
LINE
  5
133
330
12F
100
AcDbEntity
  8
0
  6
ByBlock
 62
0
100
AcDbLine
 10
0.0
 20
600.0
 30
0.0
 11
600.0
 21
600.0
 31
0.0
  0
ATTDEF
  5
134
330
12F
100
AcDbEntity
  8
0
 62
0
100
AcDbText
 10
300.0
 20
325.0
 30
0.0
 40
100.0
  1
fridge
 72
1
 11
300.0
 21
325.0
 31
0.0
100
AcDbAttributeDefinition
  3
Catalogue item
  2
ITEM
 70
1
 74
2
  0
ENDBLK
  5
131
330
12F
100
AcDbEntity
  8
0
100
AcDbBlockEnd
  0
BLOCK
  5
139
330
138
100
AcDbEntity
  8
0
100
AcDbBlockBegin
  2
ARCH_DINING_TABLE_4
 70
2
 10
0.0
 20
0.0
 30
0.0
  3
ARCH_DINING_TABLE_4
  1

  0
LWPOLYLINE
  5
13B
330
138
100
AcDbEntity
  8
0
  6
ByBlock
 62
0
100
AcDbPolyline
 90
4
 70
1
 10
0.0
 20
450.0
 10
1400.0
 20
450.0
 10
1400.0
 20
1250.0
 10
0.0
 20
1250.0
  0
LWPOLYLINE
  5
13C
330
138
100
AcDbEntity
  8
0
  6
ByBlock
 62
0
100
AcDbPolyline
 90
4
 70
1
 10
125.0
 20
0.0
 10
575.0
 20
0.0
 10
575.0
 20
450.0
 10
125.0
 20
450.0
  0
LINE
  5
13D
330
138
100
AcDbEntity
  8
0
  6
ByBlock
 62
0
100
AcDbLine
 10
125.0
 20
60.0
 30
0.0
 11
575.0
 21
60.0
 31
0.0
  0
LWPOLYLINE
  5
13E
330
138
100
AcDbEntity
  8
0
  6
ByBlock
 62
0
100
AcDbPolyline
 90
4
 70
1
 10
825.0
 20
0.0
 10
1275.0
 20
0.0
 10
1275.0
 20
450.0
 10
825.0
 20
450.0
  0
LINE
  5
13F
330
138
100
AcDbEntity
  8
0
  6
ByBlock
 62
0
100
AcDbLine
 10
825.0
 20
60.0
 30
0.0
 11
1275.0
 21
60.0
 31
0.0
  0
LWPOLYLINE
  5
140
330
138
100
AcDbEntity
  8
0
  6
ByBlock
 62
0
100
AcDbPolyline
 90
4
 70
1
 10
125.0
 20
1250.0
 10
575.0
 20
1250.0
 10
575.0
 20
1700.0
 10
125.0
 20
1700.0
  0
LINE
  5
141
330
138
100
AcDbEntity
  8
0
  6
ByBlock
 62
0
100
AcDbLine
 10
125.0
 20
1640.0
 30
0.0
 11
575.0
 21
1640.0
 31
0.0
  0
LWPOLYLINE
  5
142
330
138
100
AcDbEntity
  8
0
  6
ByBlock
 62
0
100
AcDbPolyline
 90
4
 70
1
 10
825.0
 20
1250.0
 10
1275.0
 20
1250.0
 10
1275.0
 20
1700.0
 10
825.0
 20
1700.0
  0
LINE
  5
143
330
138
100
AcDbEntity
  8
0
  6
ByBlock
 62
0
100
AcDbLine
 10
825.0
 20
1640.0
 30
0.0
 11
1275.0
 21
1640.0
 31
0.0
  0
ATTDEF
  5
144
330
138
100
AcDbEntity
  8
0
 62
0
100
AcDbText
 10
700.0
 20
850.0
 30
0.0
 40
100.0
  1
dining_table_4
 72
1
 11
700.0
 21
850.0
 31
0.0
100
AcDbAttributeDefinition
  3
Catalogue item
  2
ITEM
 70
1
 74
2
  0
ENDBLK
  5
13A
330
138
100
AcDbEntity
  8
0
100
AcDbBlockEnd
  0
BLOCK
  5
149
330
148
100
AcDbEntity
  8
0
100
AcDbBlockBegin
  2
ARCH_SOFA_3_SEAT
 70
2
 10
0.0
 20
0.0
 30
0.0
  3
ARCH_SOFA_3_SEAT
  1

  0
LWPOLYLINE
  5
14B
330
148
100
AcDbEntity
  8
0
  6
ByBlock
 62
0
100
AcDbPolyline
 90
4
 70
1
 10
0.0
 20
0.0
 10
2200.0
 20
0.0
 10
2200.0
 20
900.0
 10
0.0
 20
900.0
  0
LINE
  5
14C
330
148
100
AcDbEntity
  8
0
  6
ByBlock
 62
0
100
AcDbLine
 10
200.0
 20
0.0
 30
0.0
 11
200.0
 21
900.0
 31
0.0
  0
LINE
  5
14D
330
148
100
AcDbEntity
  8
0
  6
ByBlock
 62
0
100
AcDbLine
 10
2000.0
 20
0.0
 30
0.0
 11
2000.0
 21
900.0
 31
0.0
  0
LINE
  5
14E
330
148
100
AcDbEntity
  8
0
  6
ByBlock
 62
0
100
AcDbLine
 10
200.0
 20
200.0
 30
0.0
 11
2000.0
 21
200.0
 31
0.0
  0
LINE
  5
14F
330
148
100
AcDbEntity
  8
0
  6
ByBlock
 62
0
100
AcDbLine
 10
800.0
 20
200.0
 30
0.0
 11
800.0
 21
900.0
 31
0.0
  0
LINE
  5
150
330
148
100
AcDbEntity
  8
0
  6
ByBlock
 62
0
100
AcDbLine
 10
1400.0
 20
200.0
 30
0.0
 11
1400.0
 21
900.0
 31
0.0
  0
ATTDEF
  5
151
330
148
100
AcDbEntity
  8
0
 62
0
100
AcDbText
 10
1100.0
 20
450.0
 30
0.0
 40
100.0
  1
sofa_3_seat
 72
1
 11
1100.0
 21
450.0
 31
0.0
100
AcDbAttributeDefinition
  3
Catalogue item
  2
ITEM
 70
1
 74
2
  0
ENDBLK
  5
14A
330
148
100
AcDbEntity
  8
0
100
AcDbBlockEnd
  0
BLOCK
  5
156
330
155
100
AcDbEntity
  8
0
100
AcDbBlockBegin
  2
ARCH_COFFEE_TABLE
 70
2
 10
0.0
 20
0.0
 30
0.0
  3
ARCH_COFFEE_TABLE
  1

  0
LWPOLYLINE
  5
158
330
155
100
AcDbEntity
  8
0
  6
ByBlock
 62
0
100
AcDbPolyline
 90
4
 70
1
 10
0.0
 20
0.0
 10
1100.0
 20
0.0
 10
1100.0
 20
600.0
 10
0.0
 20
600.0
  0
ATTDEF
  5
159
330
155
100
AcDbEntity
  8
0
 62
0
100
AcDbText
 10
550.0
 20
300.0
 30
0.0
 40
100.0
  1
coffee_table
 72
1
 11
550.0
 21
300.0
 31
0.0
100
AcDbAttributeDefinition
  3
Catalogue item
  2
ITEM
 70
1
 74
2
  0
ENDBLK
  5
157
330
155
100
AcDbEntity
  8
0
100
AcDbBlockEnd
  0
BLOCK
  5
15E
330
15D
100
AcDbEntity
  8
0
100
AcDbBlockBegin
  2
ARCH_ARMCHAIR
 70
2
 10
0.0
 20
0.0
 30
0.0
  3
ARCH_ARMCHAIR
  1

  0
LWPOLYLINE
  5
160
330
15D
100
AcDbEntity
  8
0
  6
ByBlock
 62
0
100
AcDbPolyline
 90
4
 70
1
 10
0.0
 20
0.0
 10
900.0
 20
0.0
 10
900.0
 20
900.0
 10
0.0
 20
900.0
  0
LINE
  5
161
330
15D
100
AcDbEntity
  8
0
  6
ByBlock
 62
0
100
AcDbLine
 10
150.0
 20
0.0
 30
0.0
 11
150.0
 21
900.0
 31
0.0
  0
LINE
  5
162
330
15D
100
AcDbEntity
  8
0
  6
ByBlock
 62
0
100
AcDbLine
 10
750.0
 20
0.0
 30
0.0
 11
750.0
 21
900.0
 31
0.0
  0
LINE
  5
163
330
15D
100
AcDbEntity
  8
0
  6
ByBlock
 62
0
100
AcDbLine
 10
150.0
 20
200.0
 30
0.0
 11
750.0
 21
200.0
 31
0.0
  0
ATTDEF
  5
164
330
15D
100
AcDbEntity
  8
0
 62
0
100
AcDbText
 10
450.0
 20
450.0
 30
0.0
 40
100.0
  1
armchair
 72
1
 11
450.0
 21
450.0
 31
0.0
100
AcDbAttributeDefinition
  3
Catalogue item
  2
ITEM
 70
1
 74
2
  0
ENDBLK
  5
15F
330
15D
100
AcDbEntity
  8
0
100
AcDbBlockEnd
  0
BLOCK
  5
169
330
168
100
AcDbEntity
  8
0
100
AcDbBlockBegin
  2
ARCH_BOOKSHELF
 70
2
 10
0.0
 20
0.0
 30
0.0
  3
ARCH_BOOKSHELF
  1

  0
LWPOLYLINE
  5
16B
330
168
100
AcDbEntity
  8
0
  6
ByBlock
 62
0
100
AcDbPolyline
 90
4
 70
1
 10
0.0
 20
0.0
 10
800.0
 20
0.0
 10
800.0
 20
300.0
 10
0.0
 20
300.0
  0
LINE
  5
16C
330
168
100
AcDbEntity
  8
0
  6
ByBlock
 62
0
100
AcDbLine
 10
0.0
 20
0.0
 30
0.0
 11
800.0
 21
300.0
 31
0.0
  0
ATTDEF
  5
16D
330
168
100
AcDbEntity
  8
0
 62
0
100
AcDbText
 10
400.0
 20
150.0
 30
0.0
 40
100.0
  1
bookshelf
 72
1
 11
400.0
 21
150.0
 31
0.0
100
AcDbAttributeDefinition
  3
Catalogue item
  2
ITEM
 70
1
 74
2
  0
ENDBLK
  5
16A
330
168
100
AcDbEntity
  8
0
100
AcDbBlockEnd
  0
BLOCK
  5
172
330
171
100
AcDbEntity
  8
0
100
AcDbBlockBegin
  2
ARCH_WASHING_MACHINE
 70
2
 10
0.0
 20
0.0
 30
0.0
  3
ARCH_WASHING_MACHINE
  1

  0
LWPOLYLINE
  5
174
330
171
100
AcDbEntity
  8
0
  6
ByBlock
 62
0
100
AcDbPolyline
 90
4
 70
1
 10
0.0
 20
0.0
 10
600.0
 20
0.0
 10
600.0
 20
600.0
 10
0.0
 20
600.0
  0
CIRCLE
  5
175
330
171
100
AcDbEntity
  8
0
  6
ByBlock
 62
0
100
AcDbCircle
 10
300.0
 20
300.0
 30
0.0
 40
200.0
  0
ATTDEF
  5
176
330
171
100
AcDbEntity
  8
0
 62
0
100
AcDbText
 10
300.0
 20
300.0
 30
0.0
 40
100.0
  1
washing_machine
 72
1
 11
300.0
 21
300.0
 31
0.0
100
AcDbAttributeDefinition
  3
Catalogue item
  2
ITEM
 70
1
 74
2
  0
ENDBLK
  5
173
330
171
100
AcDbEntity
  8
0
100
AcDbBlockEnd
  0
BLOCK
  5
17C
330
17B
100
AcDbEntity
  8
0
100
AcDbBlockBegin
  2
SITIO_AUTO
 70
0
 10
0.0
 20
0.0
 30
0.0
  3
SITIO_AUTO
  1

  0
LWPOLYLINE
  5
17E
330
17B
100
AcDbEntity
  8
0
  6
ByBlock
 62
0
100
AcDbPolyline
 90
4
 70
1
 10
-2300.0
 20
-900.0
 10
2300.0
 20
-900.0
 10
2300.0
 20
900.0
 10
-2300.0
 20
900.0
  0
LINE
  5
17F
330
17B
100
AcDbEntity
  8
0
  6
ByBlock
 62
0
100
AcDbLine
 10
1500.0
 20
-900.0
 30
0.0
 11
1500.0
 21
900.0
 31
0.0
  0
ENDBLK
  5
17D
330
17B
100
AcDbEntity
  8
0
100
AcDbBlockEnd
  0
BLOCK
  5
181
330
180
100
AcDbEntity
  8
0
100
AcDbBlockBegin
  2
SITIO_SUV
 70
0
 10
0.0
 20
0.0
 30
0.0
  3
SITIO_SUV
  1

  0
LWPOLYLINE
  5
183
330
180
100
AcDbEntity
  8
0
  6
ByBlock
 62
0
100
AcDbPolyline
 90
4
 70
1
 10
-2500.0
 20
-1000.0
 10
2500.0
 20
-1000.0
 10
2500.0
 20
1000.0
 10
-2500.0
 20
1000.0
  0
LINE
  5
184
330
180
100
AcDbEntity
  8
0
  6
ByBlock
 62
0
100
AcDbLine
 10
1600.0
 20
-1000.0
 30
0.0
 11
1600.0
 21
1000.0
 31
0.0
  0
ENDBLK
  5
182
330
180
100
AcDbEntity
  8
0
100
AcDbBlockEnd
  0
BLOCK
  5
186
330
185
100
AcDbEntity
  8
0
100
AcDbBlockBegin
  2
SITIO_ARBOL
 70
0
 10
0.0
 20
0.0
 30
0.0
  3
SITIO_ARBOL
  1

  0
CIRCLE
  5
188
330
185
100
AcDbEntity
  8
0
  6
ByBlock
 62
0
100
AcDbCircle
 10
0.0
 20
0.0
 30
0.0
 40
2500.0
  0
CIRCLE
  5
189
330
185
100
AcDbEntity
  8
0
  6
ByBlock
 62
0
100
AcDbCircle
 10
0.0
 20
0.0
 30
0.0
 40
150.0
  0
ENDBLK
  5
187
330
185
100
AcDbEntity
  8
0
100
AcDbBlockEnd
  0
BLOCK
  5
18B
330
18A
100
AcDbEntity
  8
0
100
AcDbBlockBegin
  2
SITIO_PALMERA
 70
0
 10
0.0
 20
0.0
 30
0.0
  3
SITIO_PALMERA
  1

  0
CIRCLE
  5
18D
330
18A
100
AcDbEntity
  8
0
  6
ByBlock
 62
0
100
AcDbCircle
 10
0.0
 20
0.0
 30
0.0
 40
2000.0
  0
CIRCLE
  5
18E
330
18A
100
AcDbEntity
  8
0
  6
ByBlock
 62
0
100
AcDbCircle
 10
0.0
 20
0.0
 30
0.0
 40
120.0
  0
ENDBLK
  5
18C
330
18A
100
AcDbEntity
  8
0
100
AcDbBlockEnd
  0
BLOCK
  5
190
330
18F
100
AcDbEntity
  8
0
100
AcDbBlockBegin
  2
SITIO_PINO
 70
0
 10
0.0
 20
0.0
 30
0.0
  3
SITIO_PINO
  1

  0
CIRCLE
  5
192
330
18F
100
AcDbEntity
  8
0
  6
ByBlock
 62
0
100
AcDbCircle
 10
0.0
 20
0.0
 30
0.0
 40
1800.0
  0
CIRCLE
  5
193
330
18F
100
AcDbEntity
  8
0
  6
ByBlock
 62
0
100
AcDbCircle
 10
0.0
 20
0.0
 30
0.0
 40
120.0
  0
ENDBLK
  5
191
330
18F
100
AcDbEntity
  8
0
100
AcDbBlockEnd
  0
BLOCK
  5
195
330
194
100
AcDbEntity
  8
0
100
AcDbBlockBegin
  2
SITIO_ARBUSTO
 70
0
 10
0.0
 20
0.0
 30
0.0
  3
SITIO_ARBUSTO
  1

  0
CIRCLE
  5
197
330
194
100
AcDbEntity
  8
0
  6
ByBlock
 62
0
100
AcDbCircle
 10
0.0
 20
0.0
 30
0.0
 40
700.0
  0
ENDBLK
  5
196
330
194
100
AcDbEntity
  8
0
100
AcDbBlockEnd
  0
BLOCK
  5
199
330
198
100
AcDbEntity
  8
0
100
AcDbBlockBegin
  2
SITIO_MACETA
 70
0
 10
0.0
 20
0.0
 30
0.0
  3
SITIO_MACETA
  1

  0
CIRCLE
  5
19B
330
198
100
AcDbEntity
  8
0
  6
ByBlock
 62
0
100
AcDbCircle
 10
0.0
 20
0.0
 30
0.0
 40
300.0
  0
ENDBLK
  5
19A
330
198
100
AcDbEntity
  8
0
100
AcDbBlockEnd
  0
BLOCK
  5
19D
330
19C
100
AcDbEntity
  8
0
100
AcDbBlockBegin
  2
SITIO_REPOSERA
 70
0
 10
0.0
 20
0.0
 30
0.0
  3
SITIO_REPOSERA
  1

  0
LWPOLYLINE
  5
19F
330
19C
100
AcDbEntity
  8
0
  6
ByBlock
 62
0
100
AcDbPolyline
 90
4
 70
1
 10
-1000.0
 20
-350.0
 10
1000.0
 20
-350.0
 10
1000.0
 20
350.0
 10
-1000.0
 20
350.0
  0
ENDBLK
  5
19E
330
19C
100
AcDbEntity
  8
0
100
AcDbBlockEnd
  0
BLOCK
  5
1A1
330
1A0
100
AcDbEntity
  8
0
100
AcDbBlockBegin
  2
SITIO_PARRILLA
 70
0
 10
0.0
 20
0.0
 30
0.0
  3
SITIO_PARRILLA
  1

  0
LWPOLYLINE
  5
1A3
330
1A0
100
AcDbEntity
  8
0
  6
ByBlock
 62
0
100
AcDbPolyline
 90
4
 70
1
 10
-600.0
 20
-300.0
 10
600.0
 20
-300.0
 10
600.0
 20
300.0
 10
-600.0
 20
300.0
  0
ENDBLK
  5
1A2
330
1A0
100
AcDbEntity
  8
0
100
AcDbBlockEnd
  0
BLOCK
  5
1A5
330
1A4
100
AcDbEntity
  8
0
100
AcDbBlockBegin
  2
SITIO_MESA_JARDIN
 70
0
 10
0.0
 20
0.0
 30
0.0
  3
SITIO_MESA_JARDIN
  1

  0
CIRCLE
  5
1A7
330
1A4
100
AcDbEntity
  8
0
  6
ByBlock
 62
0
100
AcDbCircle
 10
0.0
 20
0.0
 30
0.0
 40
1200.0
  0
CIRCLE
  5
1A8
330
1A4
100
AcDbEntity
  8
0
  6
ByBlock
 62
0
100
AcDbCircle
 10
0.0
 20
0.0
 30
0.0
 40
500.0
  0
ENDBLK
  5
1A6
330
1A4
100
AcDbEntity
  8
0
100
AcDbBlockEnd
  0
BLOCK
  5
1AA
330
1A9
100
AcDbEntity
  8
0
100
AcDbBlockBegin
  2
SITIO_PERSONA
 70
0
 10
0.0
 20
0.0
 30
0.0
  3
SITIO_PERSONA
  1

  0
CIRCLE
  5
1AC
330
1A9
100
AcDbEntity
  8
0
  6
ByBlock
 62
0
100
AcDbCircle
 10
0.0
 20
0.0
 30
0.0
 40
250.0
  0
ENDBLK
  5
1AB
330
1A9
100
AcDbEntity
  8
0
100
AcDbBlockEnd
  0
BLOCK
  5
1AE
330
1AD
100
AcDbEntity
  8
0
100
AcDbBlockBegin
  2
SITIO_FAROLA
 70
0
 10
0.0
 20
0.0
 30
0.0
  3
SITIO_FAROLA
  1

  0
CIRCLE
  5
1B0
330
1AD
100
AcDbEntity
  8
0
  6
ByBlock
 62
0
100
AcDbCircle
 10
0.0
 20
0.0
 30
0.0
 40
200.0
  0
ENDBLK
  5
1AF
330
1AD
100
AcDbEntity
  8
0
100
AcDbBlockEnd
  0
ENDSEC
  0
SECTION
  2
ENTITIES
  0
LINE
  5
44
330
17
100
AcDbEntity
  8
A-WALL-E-N
100
AcDbLine
 10
3100.0
 20
12100.0
 30
0.0
 11
5000.0
 21
12100.0
 31
0.0
1001
ACADMCP_ARCH
1000
{"axis":[[3000.0,12000.0],[17000.0,12000.0],[17000.0,21000.0],[3000.0,21000.0]],"closed":true,"id":"EXT","justification":"center","kind":"wall","material":"brick","thickness":200.0,"v":1}
1001
ACADMCP_ARCH_H
1000
44
1000
45
1000
46
1000
47
1000
48
1000
49
1000
4A
1000
4B
1000
4C
1000
4D
1000
4E
1000
4F
1000
50
1000
51
1000
52
1000
53
1000
54
1000
55
1000
56
1000
57
1000
58
1000
59
1000
5A
1000
5B
1000
5C
1000
5D
1000
5E
1000
5F
1000
60
1000
61
1000
62
1000
63
1000
64
1000
65
1000
66
1000
67
1000
68
1000
69
1000
6A
1000
6B
1000
6C
1000
6D
1000
6E
1000
6F
1000
70
  0
LINE
  5
45
330
17
100
AcDbEntity
  8
A-WALL-E-N
100
AcDbLine
 10
2900.0
 20
11900.0
 30
0.0
 11
5000.0
 21
11900.0
 31
0.0
  0
LINE
  5
46
330
17
100
AcDbEntity
  8
A-WALL-E-N
100
AcDbLine
 10
7000.0
 20
12100.0
 30
0.0
 11
9950.0
 21
12100.0
 31
0.0
  0
LINE
  5
47
330
17
100
AcDbEntity
  8
A-WALL-E-N
100
AcDbLine
 10
7000.0
 20
11900.0
 30
0.0
 11
12000.0
 21
11900.0
 31
0.0
  0
LINE
  5
48
330
17
100
AcDbEntity
  8
A-WALL-E-N
100
AcDbLine
 10
10050.0
 20
12100.0
 30
0.0
 11
12000.0
 21
12100.0
 31
0.0
  0
LINE
  5
49
330
17
100
AcDbEntity
  8
A-WALL-E-N
100
AcDbLine
 10
13000.0
 20
12100.0
 30
0.0
 11
14000.0
 21
12100.0
 31
0.0
  0
LINE
  5
4A
330
17
100
AcDbEntity
  8
A-WALL-E-N
100
AcDbLine
 10
13000.0
 20
11900.0
 30
0.0
 11
14000.0
 21
11900.0
 31
0.0
  0
LINE
  5
4B
330
17
100
AcDbEntity
  8
A-WALL-E-N
100
AcDbLine
 10
16500.0
 20
12100.0
 30
0.0
 11
16900.0
 21
12100.0
 31
0.0
  0
LINE
  5
4C
330
17
100
AcDbEntity
  8
A-WALL-E-N
100
AcDbLine
 10
16500.0
 20
11900.0
 30
0.0
 11
17100.0
 21
11900.0
 31
0.0
  0
LINE
  5
4D
330
17
100
AcDbEntity
  8
A-WALL-E-N
100
AcDbLine
 10
16900.0
 20
12100.0
 30
0.0
 11
16900.0
 21
13000.0
 31
0.0
  0
LINE
  5
4E
330
17
100
AcDbEntity
  8
A-WALL-E-N
100
AcDbLine
 10
17100.0
 20
11900.0
 30
0.0
 11
17100.0
 21
13000.0
 31
0.0
  0
LINE
  5
4F
330
17
100
AcDbEntity
  8
A-WALL-E-N
100
AcDbLine
 10
16900.0
 20
15500.0
 30
0.0
 11
16900.0
 21
17950.0
 31
0.0
  0
LINE
  5
50
330
17
100
AcDbEntity
  8
A-WALL-E-N
100
AcDbLine
 10
17100.0
 20
15500.0
 30
0.0
 11
17100.0
 21
18800.0
 31
0.0
  0
LINE
  5
51
330
17
100
AcDbEntity
  8
A-WALL-E-N
100
AcDbLine
 10
16900.0
 20
18050.0
 30
0.0
 11
16900.0
 21
18800.0
 31
0.0
  0
LINE
  5
52
330
17
100
AcDbEntity
  8
A-WALL-E-N
100
AcDbLine
 10
16900.0
 20
19600.0
 30
0.0
 11
16900.0
 21
20900.0
 31
0.0
  0
LINE
  5
53
330
17
100
AcDbEntity
  8
A-WALL-E-N
100
AcDbLine
 10
17100.0
 20
19600.0
 30
0.0
 11
17100.0
 21
21100.0
 31
0.0
  0
LINE
  5
54
330
17
100
AcDbEntity
  8
A-WALL-E-N
100
AcDbLine
 10
16900.0
 20
20900.0
 30
0.0
 11
13550.0
 21
20900.0
 31
0.0
  0
LINE
  5
55
330
17
100
AcDbEntity
  8
A-WALL-E-N
100
AcDbLine
 10
17100.0
 20
21100.0
 30
0.0
 11
12500.0
 21
21100.0
 31
0.0
  0
LINE
  5
56
330
17
100
AcDbEntity
  8
A-WALL-E-N
100
AcDbLine
 10
13450.0
 20
20900.0
 30
0.0
 11
12500.0
 21
20900.0
 31
0.0
  0
LINE
  5
57
330
17
100
AcDbEntity
  8
A-WALL-E-N
100
AcDbLine
 10
11000.0
 20
20900.0
 30
0.0
 11
10050.0
 21
20900.0
 31
0.0
  0
LINE
  5
58
330
17
100
AcDbEntity
  8
A-WALL-E-N
100
AcDbLine
 10
11000.0
 20
21100.0
 30
0.0
 11
7500.0
 21
21100.0
 31
0.0
  0
LINE
  5
59
330
17
100
AcDbEntity
  8
A-WALL-E-N
100
AcDbLine
 10
9950.0
 20
20900.0
 30
0.0
 11
7500.0
 21
20900.0
 31
0.0
  0
LINE
  5
5A
330
17
100
AcDbEntity
  8
A-WALL-E-N
100
AcDbLine
 10
5500.0
 20
20900.0
 30
0.0
 11
3100.0
 21
20900.0
 31
0.0
  0
LINE
  5
5B
330
17
100
AcDbEntity
  8
A-WALL-E-N
100
AcDbLine
 10
5500.0
 20
21100.0
 30
0.0
 11
2900.0
 21
21100.0
 31
0.0
  0
LINE
  5
5C
330
17
100
AcDbEntity
  8
A-WALL-E-N
100
AcDbLine
 10
3100.0
 20
20900.0
 30
0.0
 11
3100.0
 21
20200.0
 31
0.0
  0
LINE
  5
5D
330
17
100
AcDbEntity
  8
A-WALL-E-N
100
AcDbLine
 10
2900.0
 20
21100.0
 30
0.0
 11
2900.0
 21
20200.0
 31
0.0
  0
LINE
  5
5E
330
17
100
AcDbEntity
  8
A-WALL-E-N
100
AcDbLine
 10
3100.0
 20
19000.0
 30
0.0
 11
3100.0
 21
16550.0
 31
0.0
  0
LINE
  5
5F
330
17
100
AcDbEntity
  8
A-WALL-E-N
100
AcDbLine
 10
2900.0
 20
19000.0
 30
0.0
 11
2900.0
 21
11900.0
 31
0.0
  0
LINE
  5
60
330
17
100
AcDbEntity
  8
A-WALL-E-N
100
AcDbLine
 10
3100.0
 20
16450.0
 30
0.0
 11
3100.0
 21
12100.0
 31
0.0
  0
LINE
  5
61
330
17
100
AcDbEntity
  8
A-WALL-E-N
100
AcDbLine
 10
5000.0
 20
12100.0
 30
0.0
 11
5000.0
 21
11900.0
 31
0.0
  0
LINE
  5
62
330
17
100
AcDbEntity
  8
A-WALL-E-N
100
AcDbLine
 10
7000.0
 20
12100.0
 30
0.0
 11
7000.0
 21
11900.0
 31
0.0
  0
LINE
  5
63
330
17
100
AcDbEntity
  8
A-WALL-E-N
100
AcDbLine
 10
12000.0
 20
12100.0
 30
0.0
 11
12000.0
 21
11900.0
 31
0.0
  0
LINE
  5
64
330
17
100
AcDbEntity
  8
A-WALL-E-N
100
AcDbLine
 10
13000.0
 20
12100.0
 30
0.0
 11
13000.0
 21
11900.0
 31
0.0
  0
LINE
  5
65
330
17
100
AcDbEntity
  8
A-WALL-E-N
100
AcDbLine
 10
14000.0
 20
12100.0
 30
0.0
 11
14000.0
 21
11900.0
 31
0.0
  0
LINE
  5
66
330
17
100
AcDbEntity
  8
A-WALL-E-N
100
AcDbLine
 10
16500.0
 20
12100.0
 30
0.0
 11
16500.0
 21
11900.0
 31
0.0
  0
LINE
  5
67
330
17
100
AcDbEntity
  8
A-WALL-E-N
100
AcDbLine
 10
16900.0
 20
13000.0
 30
0.0
 11
17100.0
 21
13000.0
 31
0.0
  0
LINE
  5
68
330
17
100
AcDbEntity
  8
A-WALL-E-N
100
AcDbLine
 10
16900.0
 20
15500.0
 30
0.0
 11
17100.0
 21
15500.0
 31
0.0
  0
LINE
  5
69
330
17
100
AcDbEntity
  8
A-WALL-E-N
100
AcDbLine
 10
16900.0
 20
18800.0
 30
0.0
 11
17100.0
 21
18800.0
 31
0.0
  0
LINE
  5
6A
330
17
100
AcDbEntity
  8
A-WALL-E-N
100
AcDbLine
 10
16900.0
 20
19600.0
 30
0.0
 11
17100.0
 21
19600.0
 31
0.0
  0
LINE
  5
6B
330
17
100
AcDbEntity
  8
A-WALL-E-N
100
AcDbLine
 10
12500.0
 20
20900.0
 30
0.0
 11
12500.0
 21
21100.0
 31
0.0
  0
LINE
  5
6C
330
17
100
AcDbEntity
  8
A-WALL-E-N
100
AcDbLine
 10
11000.0
 20
20900.0
 30
0.0
 11
11000.0
 21
21100.0
 31
0.0
  0
LINE
  5
6D
330
17
100
AcDbEntity
  8
A-WALL-E-N
100
AcDbLine
 10
7500.0
 20
20900.0
 30
0.0
 11
7500.0
 21
21100.0
 31
0.0
  0
LINE
  5
6E
330
17
100
AcDbEntity
  8
A-WALL-E-N
100
AcDbLine
 10
5500.0
 20
20900.0
 30
0.0
 11
5500.0
 21
21100.0
 31
0.0
  0
LINE
  5
6F
330
17
100
AcDbEntity
  8
A-WALL-E-N
100
AcDbLine
 10
3100.0
 20
20200.0
 30
0.0
 11
2900.0
 21
20200.0
 31
0.0
  0
LINE
  5
70
330
17
100
AcDbEntity
  8
A-WALL-E-N
100
AcDbLine
 10
3100.0
 20
19000.0
 30
0.0
 11
2900.0
 21
19000.0
 31
0.0
  0
LINE
  5
71
330
17
100
AcDbEntity
  8
A-DOOR-E-N
100
AcDbLine
 10
13000.0
 20
12100.0
 30
0.0
 11
13000.0
 21
13100.0
 31
0.0
1001
ACADMCP_ARCH
1000
{"hand":"left","height":null,"id":"D1","kind":"opening","offset":9000.0,"opening_kind":"door","sill":null,"swing":"in","tag":"P01","v":1,"wall":"EXT","width":1000.0}
1001
ACADMCP_ARCH_H
1000
71
1000
72
  0
ARC
  5
72
330
17
100
AcDbEntity
  8
A-DOOR-E-N
100
AcDbCircle
 10
13000.0
 20
12100.0
 30
0.0
 40
1000.0
100
AcDbArc
 50
90.0
 51
180.0
  0
LINE
  5
75
330
17
100
AcDbEntity
  8
A-WIND-E-N
100
AcDbLine
 10
14000.0
 20
12100.0
 30
0.0
 11
16500.0
 21
12100.0
 31
0.0
1001
ACADMCP_ARCH
1000
{"hand":"left","height":1800.0,"id":"W1","kind":"opening","offset":11000.0,"opening_kind":"window","sill":600.0,"swing":"in","tag":"V01","v":1,"wall":"EXT","width":2500.0}
1001
ACADMCP_ARCH_H
1000
75
1000
76
1000
77
1000
78
  0
LINE
  5
76
330
17
100
AcDbEntity
  8
A-WIND-E-N
100
AcDbLine
 10
14000.0
 20
11900.0
 30
0.0
 11
16500.0
 21
11900.0
 31
0.0
  0
LINE
  5
77
330
17
100
AcDbEntity
  8
A-WIND-E-N
100
AcDbLine
 10
14000.0
 20
11966.666666666666
 30
0.0
 11
16500.0
 21
11966.666666666666
 31
0.0
  0
LINE
  5
78
330
17
100
AcDbEntity
  8
A-WIND-E-N
100
AcDbLine
 10
14000.0
 20
12033.333333333334
 30
0.0
 11
16500.0
 21
12033.333333333334
 31
0.0
  0
LINE
  5
79
330
17
100
AcDbEntity
  8
A-WIND-E-N
100
AcDbLine
 10
5000.0
 20
12100.0
 30
0.0
 11
7000.0
 21
12100.0
 31
0.0
1001
ACADMCP_ARCH
1000
{"hand":"left","height":1200.0,"id":"W2","kind":"opening","offset":2000.0,"opening_kind":"window","sill":900.0,"swing":"in","tag":"V02","v":1,"wall":"EXT","width":2000.0}
1001
ACADMCP_ARCH_H
1000
79
1000
7A
1000
7B
1000
7C
  0
LINE
  5
7A
330
17
100
AcDbEntity
  8
A-WIND-E-N
100
AcDbLine
 10
5000.0
 20
11900.0
 30
0.0
 11
7000.0
 21
11900.0
 31
0.0
  0
LINE
  5
7B
330
17
100
AcDbEntity
  8
A-WIND-E-N
100
AcDbLine
 10
5000.0
 20
11966.666666666666
 30
0.0
 11
7000.0
 21
11966.666666666666
 31
0.0
  0
LINE
  5
7C
330
17
100
AcDbEntity
  8
A-WIND-E-N
100
AcDbLine
 10
5000.0
 20
12033.333333333334
 30
0.0
 11
7000.0
 21
12033.333333333334
 31
0.0
  0
LINE
  5
7D
330
17
100
AcDbEntity
  8
A-WIND-E-N
100
AcDbLine
 10
16900.0
 20
13000.0
 30
0.0
 11
16900.0
 21
15500.0
 31
0.0
1001
ACADMCP_ARCH
1000
{"hand":"left","height":1800.0,"id":"W3","kind":"opening","offset":15000.0,"opening_kind":"window","sill":600.0,"swing":"in","tag":"V03","v":1,"wall":"EXT","width":2500.0}
1001
ACADMCP_ARCH_H
1000
7D
1000
7E
1000
7F
1000
80
  0
LINE
  5
7E
330
17
100
AcDbEntity
  8
A-WIND-E-N
100
AcDbLine
 10
17100.0
 20
13000.0
 30
0.0
 11
17100.0
 21
15500.0
 31
0.0
  0
LINE
  5
7F
330
17
100
AcDbEntity
  8
A-WIND-E-N
100
AcDbLine
 10
17033.333333333332
 20
13000.0
 30
0.0
 11
17033.333333333332
 21
15500.0
 31
0.0
  0
LINE
  5
80
330
17
100
AcDbEntity
  8
A-WIND-E-N
100
AcDbLine
 10
16966.666666666668
 20
13000.0
 30
0.0
 11
16966.666666666668
 21
15500.0
 31
0.0
  0
LINE
  5
81
330
17
100
AcDbEntity
  8
A-WIND-E-N
100
AcDbLine
 10
16900.0
 20
18800.0
 30
0.0
 11
16900.0
 21
19600.0
 31
0.0
1001
ACADMCP_ARCH
1000
{"hand":"left","height":600.0,"id":"W4","kind":"opening","offset":20800.0,"opening_kind":"window","sill":1500.0,"swing":"in","tag":"V04","v":1,"wall":"EXT","width":800.0}
1001
ACADMCP_ARCH_H
1000
81
1000
82
1000
83
1000
84
  0
LINE
  5
82
330
17
100
AcDbEntity
  8
A-WIND-E-N
100
AcDbLine
 10
17100.0
 20
18800.0
 30
0.0
 11
17100.0
 21
19600.0
 31
0.0
  0
LINE
  5
83
330
17
100
AcDbEntity
  8
A-WIND-E-N
100
AcDbLine
 10
17033.333333333332
 20
18800.0
 30
0.0
 11
17033.333333333332
 21
19600.0
 31
0.0
  0
LINE
  5
84
330
17
100
AcDbEntity
  8
A-WIND-E-N
100
AcDbLine
 10
16966.666666666668
 20
18800.0
 30
0.0
 11
16966.666666666668
 21
19600.0
 31
0.0
  0
LINE
  5
85
330
17
100
AcDbEntity
  8
A-WIND-E-N
100
AcDbLine
 10
12500.0
 20
20900.0
 30
0.0
 11
11000.0
 21
20900.0
 31
0.0
1001
ACADMCP_ARCH
1000
{"hand":"left","height":900.0,"id":"W5","kind":"opening","offset":27500.0,"opening_kind":"window","sill":1100.0,"swing":"in","tag":"V05","v":1,"wall":"EXT","width":1500.0}
1001
ACADMCP_ARCH_H
1000
85
1000
86
1000
87
1000
88
  0
LINE
  5
86
330
17
100
AcDbEntity
  8
A-WIND-E-N
100
AcDbLine
 10
12500.0
 20
21100.0
 30
0.0
 11
11000.0
 21
21100.0
 31
0.0
  0
LINE
  5
87
330
17
100
AcDbEntity
  8
A-WIND-E-N
100
AcDbLine
 10
12500.0
 20
21033.333333333332
 30
0.0
 11
11000.0
 21
21033.333333333332
 31
0.0
  0
LINE
  5
88
330
17
100
AcDbEntity
  8
A-WIND-E-N
100
AcDbLine
 10
12500.0
 20
20966.666666666668
 30
0.0
 11
11000.0
 21
20966.666666666668
 31
0.0
  0
LINE
  5
89
330
17
100
AcDbEntity
  8
A-WIND-E-N
100
AcDbLine
 10
7500.0
 20
20900.0
 30
0.0
 11
5500.0
 21
20900.0
 31
0.0
1001
ACADMCP_ARCH
1000
{"hand":"left","height":1200.0,"id":"W6","kind":"opening","offset":32500.0,"opening_kind":"window","sill":900.0,"swing":"in","tag":"V06","v":1,"wall":"EXT","width":2000.0}
1001
ACADMCP_ARCH_H
1000
89
1000
8A
1000
8B
1000
8C
  0
LINE
  5
8A
330
17
100
AcDbEntity
  8
A-WIND-E-N
100
AcDbLine
 10
7500.0
 20
21100.0
 30
0.0
 11
5500.0
 21
21100.0
 31
0.0
  0
LINE
  5
8B
330
17
100
AcDbEntity
  8
A-WIND-E-N
100
AcDbLine
 10
7500.0
 20
21033.333333333332
 30
0.0
 11
5500.0
 21
21033.333333333332
 31
0.0
  0
LINE
  5
8C
330
17
100
AcDbEntity
  8
A-WIND-E-N
100
AcDbLine
 10
7500.0
 20
20966.666666666668
 30
0.0
 11
5500.0
 21
20966.666666666668
 31
0.0
  0
LINE
  5
8D
330
17
100
AcDbEntity
  8
A-WIND-E-N
100
AcDbLine
 10
3100.0
 20
20200.0
 30
0.0
 11
3100.0
 21
19000.0
 31
0.0
1001
ACADMCP_ARCH
1000
{"hand":"left","height":1200.0,"id":"W7","kind":"opening","offset":37800.0,"opening_kind":"window","sill":900.0,"swing":"in","tag":"V07","v":1,"wall":"EXT","width":1200.0}
1001
ACADMCP_ARCH_H
1000
8D
1000
8E
1000
8F
1000
90
  0
LINE
  5
8E
330
17
100
AcDbEntity
  8
A-WIND-E-N
100
AcDbLine
 10
2900.0
 20
20200.0
 30
0.0
 11
2900.0
 21
19000.0
 31
0.0
  0
LINE
  5
8F
330
17
100
AcDbEntity
  8
A-WIND-E-N
100
AcDbLine
 10
2966.6666666666665
 20
20200.0
 30
0.0
 11
2966.6666666666665
 21
19000.0
 31
0.0
  0
LINE
  5
90
330
17
100
AcDbEntity
  8
A-WIND-E-N
100
AcDbLine
 10
3033.3333333333335
 20
20200.0
 30
0.0
 11
3033.3333333333335
 21
19000.0
 31
0.0
  0
LINE
  5
91
330
17
100
AcDbEntity
  8
A-WALL-E-N
100
AcDbLine
 10
9950.0
 20
12100.0
 30
0.0
 11
9950.0
 21
14000.0
 31
0.0
1001
ACADMCP_ARCH
1000
{"axis":[[10000.0,12000.0],[10000.0,21000.0]],"closed":false,"id":"P1","justification":"center","kind":"wall","material":"brick","thickness":100.0,"v":1}
1001
ACADMCP_ARCH_H
1000
91
1000
92
1000
93
1000
94
1000
95
1000
96
1000
97
1000
98
1000
99
1000
9A
1000
9B
  0
LINE
  5
92
330
17
100
AcDbEntity
  8
A-WALL-E-N
100
AcDbLine
 10
10050.0
 20
12100.0
 30
0.0
 11
10050.0
 21
14000.0
 31
0.0
  0
LINE
  5
93
330
17
100
AcDbEntity
  8
A-WALL-E-N
100
AcDbLine
 10
9950.0
 20
14900.0
 30
0.0
 11
9950.0
 21
16450.0
 31
0.0
  0
LINE
  5
94
330
17
100
AcDbEntity
  8
A-WALL-E-N
100
AcDbLine
 10
10050.0
 20
14900.0
 30
0.0
 11
10050.0
 21
18000.0
 31
0.0
  0
LINE
  5
95
330
17
100
AcDbEntity
  8
A-WALL-E-N
100
AcDbLine
 10
9950.0
 20
16550.0
 30
0.0
 11
9950.0
 21
18000.0
 31
0.0
  0
LINE
  5
96
330
17
100
AcDbEntity
  8
A-WALL-E-N
100
AcDbLine
 10
9950.0
 20
18900.0
 30
0.0
 11
9950.0
 21
20900.0
 31
0.0
  0
LINE
  5
97
330
17
100
AcDbEntity
  8
A-WALL-E-N
100
AcDbLine
 10
10050.0
 20
18900.0
 30
0.0
 11
10050.0
 21
20900.0
 31
0.0
  0
LINE
  5
98
330
17
100
AcDbEntity
  8
A-WALL-E-N
100
AcDbLine
 10
9950.0
 20
14000.0
 30
0.0
 11
10050.0
 21
14000.0
 31
0.0
  0
LINE
  5
99
330
17
100
AcDbEntity
  8
A-WALL-E-N
100
AcDbLine
 10
9950.0
 20
14900.0
 30
0.0
 11
10050.0
 21
14900.0
 31
0.0
  0
LINE
  5
9A
330
17
100
AcDbEntity
  8
A-WALL-E-N
100
AcDbLine
 10
9950.0
 20
18000.0
 30
0.0
 11
10050.0
 21
18000.0
 31
0.0
  0
LINE
  5
9B
330
17
100
AcDbEntity
  8
A-WALL-E-N
100
AcDbLine
 10
9950.0
 20
18900.0
 30
0.0
 11
10050.0
 21
18900.0
 31
0.0
  0
LINE
  5
9C
330
17
100
AcDbEntity
  8
A-DOOR-E-N
100
AcDbLine
 10
9950.0
 20
14000.0
 30
0.0
 11
9050.0
 21
14000.0
 31
0.0
1001
ACADMCP_ARCH
1000
{"hand":"right","height":null,"id":"D2","kind":"opening","offset":2000.0,"opening_kind":"door","sill":null,"swing":"in","tag":"P02","v":1,"wall":"P1","width":900.0}
1001
ACADMCP_ARCH_H
1000
9C
1000
9D
  0
ARC
  5
9D
330
17
100
AcDbEntity
  8
A-DOOR-E-N
100
AcDbCircle
 10
9950.0
 20
14000.0
 30
0.0
 40
900.0
100
AcDbArc
 50
90.0
 51
180.0
  0
LINE
  5
9E
330
17
100
AcDbEntity
  8
A-DOOR-E-N
100
AcDbLine
 10
9950.0
 20
18900.0
 30
0.0
 11
9050.0
 21
18900.0
 31
0.0
1001
ACADMCP_ARCH
1000
{"hand":"left","height":null,"id":"D3","kind":"opening","offset":6000.0,"opening_kind":"door","sill":null,"swing":"in","tag":"P03","v":1,"wall":"P1","width":900.0}
1001
ACADMCP_ARCH_H
1000
9E
1000
9F
  0
ARC
  5
9F
330
17
100
AcDbEntity
  8
A-DOOR-E-N
100
AcDbCircle
 10
9950.0
 20
18900.0
 30
0.0
 40
900.0
100
AcDbArc
 50
180.0
 51
270.0
  0
LINE
  5
A0
330
17
100
AcDbEntity
  8
A-WALL-E-N
100
AcDbLine
 10
3100.0
 20
16550.0
 30
0.0
 11
9950.0
 21
16550.0
 31
0.0
1001
ACADMCP_ARCH
1000
{"axis":[[3000.0,16500.0],[10000.0,16500.0]],"closed":false,"id":"P2","justification":"center","kind":"wall","material":"brick","thickness":100.0,"v":1}
1001
ACADMCP_ARCH_H
1000
A0
1000
A1
  0
LINE
  5
A1
330
17
100
AcDbEntity
  8
A-WALL-E-N
100
AcDbLine
 10
3100.0
 20
16450.0
 30
0.0
 11
9950.0
 21
16450.0
 31
0.0
  0
LINE
  5
A2
330
17
100
AcDbEntity
  8
A-WALL-E-N
100
AcDbLine
 10
13550.0
 20
18050.0
 30
0.0
 11
16900.0
 21
18050.0
 31
0.0
1001
ACADMCP_ARCH
1000
{"axis":[[13500.0,18000.0],[17000.0,18000.0]],"closed":false,"id":"P3","justification":"center","kind":"wall","material":"brick","thickness":100.0,"v":1}
1001
ACADMCP_ARCH_H
1000
A2
1000
A3
  0
LINE
  5
A3
330
17
100
AcDbEntity
  8
A-WALL-E-N
100
AcDbLine
 10
13450.0
 20
17950.0
 30
0.0
 11
16900.0
 21
17950.0
 31
0.0
  0
LINE
  5
A4
330
17
100
AcDbEntity
  8
A-WALL-E-N
100
AcDbLine
 10
13450.0
 20
17950.0
 30
0.0
 11
13450.0
 21
18400.0
 31
0.0
1001
ACADMCP_ARCH
1000
{"axis":[[13500.0,18000.0],[13500.0,21000.0]],"closed":false,"id":"P4","justification":"center","kind":"wall","material":"brick","thickness":100.0,"v":1}
1001
ACADMCP_ARCH_H
1000
A4
1000
A5
1000
A6
1000
A7
1000
A8
1000
A9
  0
LINE
  5
A5
330
17
100
AcDbEntity
  8
A-WALL-E-N
100
AcDbLine
 10
13550.0
 20
18050.0
 30
0.0
 11
13550.0
 21
18400.0
 31
0.0
  0
LINE
  5
A6
330
17
100
AcDbEntity
  8
A-WALL-E-N
100
AcDbLine
 10
13450.0
 20
19200.0
 30
0.0
 11
13450.0
 21
20900.0
 31
0.0
  0
LINE
  5
A7
330
17
100
AcDbEntity
  8
A-WALL-E-N
100
AcDbLine
 10
13550.0
 20
19200.0
 30
0.0
 11
13550.0
 21
20900.0
 31
0.0
  0
LINE
  5
A8
330
17
100
AcDbEntity
  8
A-WALL-E-N
100
AcDbLine
 10
13450.0
 20
18400.0
 30
0.0
 11
13550.0
 21
18400.0
 31
0.0
  0
LINE
  5
A9
330
17
100
AcDbEntity
  8
A-WALL-E-N
100
AcDbLine
 10
13450.0
 20
19200.0
 30
0.0
 11
13550.0
 21
19200.0
 31
0.0
  0
LINE
  5
AA
330
17
100
AcDbEntity
  8
A-DOOR-E-N
100
AcDbLine
 10
13550.0
 20
19200.0
 30
0.0
 11
14350.0
 21
19200.0
 31
0.0
1001
ACADMCP_ARCH
1000
{"hand":"right","height":null,"id":"D4","kind":"opening","offset":400.0,"opening_kind":"door","sill":null,"swing":"out","tag":"P04","v":1,"wall":"P4","width":800.0}
1001
ACADMCP_ARCH_H
1000
AA
1000
AB
  0
ARC
  5
AB
330
17
100
AcDbEntity
  8
A-DOOR-E-N
100
AcDbCircle
 10
13550.0
 20
19200.0
 30
0.0
 40
800.0
100
AcDbArc
 50
270.0
 51
0.0
  0
LINE
  5
AC
330
17
100
AcDbEntity
  8
A-WALL-E-N
100
AcDbLine
 10
-5900.0
 20
13100.0
 30
0.0
 11
-4350.0
 21
13100.0
 31
0.0
1001
ACADMCP_ARCH
1000
{"axis":[[-6000.0,13000.0],[0.0,13000.0],[0.0,19000.0],[-6000.0,19000.0]],"closed":true,"id":"G","justification":"center","kind":"wall","material":"brick","thickness":200.0,"v":1}
1001
ACADMCP_ARCH_H
1000
AC
1000
AD
1000
AE
1000
AF
1000
B0
1000
B1
1000
B2
1000
B3
1000
B4
1000
B5
1000
B6
1000
B7
1000
B8
1000
B9
1000
BA
1000
BB
  0
LINE
  5
AD
330
17
100
AcDbEntity
  8
A-WALL-E-N
100
AcDbLine
 10
-6100.0
 20
12900.0
 30
0.0
 11
-4350.0
 21
12900.0
 31
0.0
  0
LINE
  5
AE
330
17
100
AcDbEntity
  8
A-WALL-E-N
100
AcDbLine
 10
-1650.0
 20
13100.0
 30
0.0
 11
-100.0
 21
13100.0
 31
0.0
  0
LINE
  5
AF
330
17
100
AcDbEntity
  8
A-WALL-E-N
100
AcDbLine
 10
-1650.0
 20
12900.0
 30
0.0
 11
100.0
 21
12900.0
 31
0.0
  0
LINE
  5
B0
330
17
100
AcDbEntity
  8
A-WALL-E-N
100
AcDbLine
 10
-100.0
 20
13100.0
 30
0.0
 11
-100.0
 21
15000.0
 31
0.0
  0
LINE
  5
B1
330
17
100
AcDbEntity
  8
A-WALL-E-N
100
AcDbLine
 10
100.0
 20
12900.0
 30
0.0
 11
100.0
 21
15000.0
 31
0.0
  0
LINE
  5
B2
330
17
100
AcDbEntity
  8
A-WALL-E-N
100
AcDbLine
 10
-100.0
 20
16000.0
 30
0.0
 11
-100.0
 21
18900.0
 31
0.0
  0
LINE
  5
B3
330
17
100
AcDbEntity
  8
A-WALL-E-N
100
AcDbLine
 10
100.0
 20
16000.0
 30
0.0
 11
100.0
 21
19100.0
 31
0.0
  0
LINE
  5
B4
330
17
100
AcDbEntity
  8
A-WALL-E-N
100
AcDbLine
 10
-100.0
 20
18900.0
 30
0.0
 11
-5900.0
 21
18900.0
 31
0.0
  0
LINE
  5
B5
330
17
100
AcDbEntity
  8
A-WALL-E-N
100
AcDbLine
 10
100.0
 20
19100.0
 30
0.0
 11
-6100.0
 21
19100.0
 31
0.0
  0
LINE
  5
B6
330
17
100
AcDbEntity
  8
A-WALL-E-N
100
AcDbLine
 10
-5900.0
 20
18900.0
 30
0.0
 11
-5900.0
 21
13100.0
 31
0.0
  0
LINE
  5
B7
330
17
100
AcDbEntity
  8
A-WALL-E-N
100
AcDbLine
 10
-6100.0
 20
19100.0
 30
0.0
 11
-6100.0
 21
12900.0
 31
0.0
  0
LINE
  5
B8
330
17
100
AcDbEntity
  8
A-WALL-E-N
100
AcDbLine
 10
-4350.0
 20
13100.0
 30
0.0
 11
-4350.0
 21
12900.0
 31
0.0
  0
LINE
  5
B9
330
17
100
AcDbEntity
  8
A-WALL-E-N
100
AcDbLine
 10
-1650.0
 20
13100.0
 30
0.0
 11
-1650.0
 21
12900.0
 31
0.0
  0
LINE
  5
BA
330
17
100
AcDbEntity
  8
A-WALL-E-N
100
AcDbLine
 10
-100.0
 20
15000.0
 30
0.0
 11
100.0
 21
15000.0
 31
0.0
  0
LINE
  5
BB
330
17
100
AcDbEntity
  8
A-WALL-E-N
100
AcDbLine
 10
-100.0
 20
16000.0
 30
0.0
 11
100.0
 21
16000.0
 31
0.0
  0
LINE
  5
BC
330
17
100
AcDbEntity
  8
A-DOOR-E-N
100
AcDbLine
 10
-4350.0
 20
12900.0
 30
0.0
 11
-4350.0
 21
10200.0
 31
0.0
1001
ACADMCP_ARCH
1000
{"hand":"left","height":2300.0,"id":"GD","kind":"opening","offset":1650.0,"opening_kind":"door","sill":null,"swing":"out","tag":"PG1","v":1,"wall":"G","width":2700.0}
1001
ACADMCP_ARCH_H
1000
BC
1000
BD
  0
ARC
  5
BD
330
17
100
AcDbEntity
  8
A-DOOR-E-N
100
AcDbCircle
 10
-4350.0
 20
12900.0
 30
0.0
 40
2700.0
100
AcDbArc
 50
270.0
 51
0.0
  0
LINE
  5
BE
330
17
100
AcDbEntity
  8
A-WIND-E-N
100
AcDbLine
 10
-100.0
 20
15000.0
 30
0.0
 11
-100.0
 21
16000.0
 31
0.0
1001
ACADMCP_ARCH
1000
{"hand":"left","height":800.0,"id":"GW","kind":"opening","offset":8000.0,"opening_kind":"window","sill":1200.0,"swing":"in","tag":"VG1","v":1,"wall":"G","width":1000.0}
1001
ACADMCP_ARCH_H
1000
BE
1000
BF
1000
C0
1000
C1
  0
LINE
  5
BF
330
17
100
AcDbEntity
  8
A-WIND-E-N
100
AcDbLine
 10
100.0
 20
15000.0
 30
0.0
 11
100.0
 21
16000.0
 31
0.0
  0
LINE
  5
C0
330
17
100
AcDbEntity
  8
A-WIND-E-N
100
AcDbLine
 10
33.33333333333333
 20
15000.0
 30
0.0
 11
33.33333333333333
 21
16000.0
 31
0.0
  0
LINE
  5
C1
330
17
100
AcDbEntity
  8
A-WIND-E-N
100
AcDbLine
 10
-33.33333333333334
 20
15000.0
 30
0.0
 11
-33.33333333333334
 21
16000.0
 31
0.0
  0
TEXT
  5
C2
330
17
100
AcDbEntity
  8
A-ROOM-T-N
100
AcDbText
 10
11000.0
 20
15000.0
 30
0.0
 40
350.0
  1
Living Cocina
100
AcDbText
1001
ACADMCP_ARCH
1000
{"area":50102500.0,"at":[11000.0,15000.0],"id":"R1","kind":"room","name":"Living Cocina","number":"01","v":1}
  0
TEXT
  5
C3
330
17
100
AcDbEntity
  8
A-ROOM-T-N
100
AcDbText
 10
11000.0
 20
14600.0
 30
0.0
 40
250.0
  1
01
100
AcDbText
  0
TEXT
  5
C4
330
17
100
AcDbEntity
  8
A-ROOM-T-N
100
AcDbText
 10
11000.0
 20
14200.0
 30
0.0
 40
250.0
  1
50.10 m²
100
AcDbText
  0
TEXT
  5
C5
330
17
100
AcDbEntity
  8
A-ROOM-T-N
100
AcDbText
 10
6500.0
 20
12800.0
 30
0.0
 40
350.0
  1
Dormitorio 1
100
AcDbText
1001
ACADMCP_ARCH
1000
{"area":29797500.0,"at":[6500.0,12800.0],"id":"R2","kind":"room","name":"Dormitorio 1","number":"02","v":1}
  0
TEXT
  5
C6
330
17
100
AcDbEntity
  8
A-ROOM-T-N
100
AcDbText
 10
6500.0
 20
12400.0
 30
0.0
 40
250.0
  1
02
100
AcDbText
  0
TEXT
  5
C7
330
17
100
AcDbEntity
  8
A-ROOM-T-N
100
AcDbText
 10
6500.0
 20
12000.0
 30
0.0
 40
250.0
  1
29.80 m²
100
AcDbText
  0
TEXT
  5
C8
330
17
100
AcDbEntity
  8
A-ROOM-T-N
100
AcDbText
 10
6500.0
 20
17800.0
 30
0.0
 40
350.0
  1
Dormitorio 2
100
AcDbText
1001
ACADMCP_ARCH
1000
{"area":29797500.0,"at":[6500.0,17800.0],"id":"R3","kind":"room","name":"Dormitorio 2","number":"03","v":1}
  0
TEXT
  5
C9
330
17
100
AcDbEntity
  8
A-ROOM-T-N
100
AcDbText
 10
6500.0
 20
17400.0
 30
0.0
 40
250.0
  1
03
100
AcDbText
  0
TEXT
  5
CA
330
17
100
AcDbEntity
  8
A-ROOM-T-N
100
AcDbText
 10
6500.0
 20
17000.0
 30
0.0
 40
250.0
  1
29.80 m²
100
AcDbText
  0
TEXT
  5
CB
330
17
100
AcDbEntity
  8
A-ROOM-T-N
100
AcDbText
 10
15000.0
 20
19400.0
 30
0.0
 40
350.0
  1
Bano
100
AcDbText
1001
ACADMCP_ARCH
1000
{"area":9547500.0,"at":[15000.0,19400.0],"id":"R4","kind":"room","name":"Bano","number":"04","v":1}
  0
TEXT
  5
CC
330
17
100
AcDbEntity
  8
A-ROOM-T-N
100
AcDbText
 10
15000.0
 20
19000.0
 30
0.0
 40
250.0
  1
04
100
AcDbText
  0
TEXT
  5
CD
330
17
100
AcDbEntity
  8
A-ROOM-T-N
100
AcDbText
 10
15000.0
 20
18600.0
 30
0.0
 40
250.0
  1
9.55 m²
100
AcDbText
  0
TEXT
  5
CE
330
17
100
AcDbEntity
  8
A-ROOM-T-N
100
AcDbText
 10
-3000.0
 20
16000.0
 30
0.0
 40
350.0
  1
Garaje
100
AcDbText
1001
ACADMCP_ARCH
1000
{"area":33640000.0,"at":[-3000.0,16000.0],"id":"R5","kind":"room","name":"Garaje","number":"05","v":1}
  0
TEXT
  5
CF
330
17
100
AcDbEntity
  8
A-ROOM-T-N
100
AcDbText
 10
-3000.0
 20
15600.0
 30
0.0
 40
250.0
  1
05
100
AcDbText
  0
TEXT
  5
D0
330
17
100
AcDbEntity
  8
A-ROOM-T-N
100
AcDbText
 10
-3000.0
 20
15200.0
 30
0.0
 40
250.0
  1
33.64 m²
100
AcDbText
  0
INSERT
  5
D9
330
17
100
AcDbEntity
  8
A-FURN-E-N
100
AcDbBlockReference
 66
1
  2
ARCH_DOUBLE_BED
 10
3100.0
 20
15100.0
 30
0.0
 50
270.0
  0
ATTRIB
  5
DB
330
17
100
AcDbEntity
  8
0
 62
0
100
AcDbText
 10
4100.0
 20
14300.0
 30
0.0
 40
100.0
  1
double_bed
 50
-90.00000000000001
 72
1
 11
4100.0
 21
14300.0
 31
0.0
100
AcDbAttribute
  2
ITEM
 70
1
 74
2
  0
SEQEND
  5
DA
330
D9
100
AcDbEntity
  8
A-FURN-E-N
  0
INSERT
  5
E2
330
17
100
AcDbEntity
  8
A-FURN-E-N
100
AcDbBlockReference
 66
1
  2
ARCH_WARDROBE
 10
9700.0
 20
16450.0
 30
0.0
 50
180.0
  0
ATTRIB
  5
E4
330
17
100
AcDbEntity
  8
0
 62
0
100
AcDbText
 10
9100.0
 20
16150.0
 30
0.0
 40
100.0
  1
wardrobe
 50
180.0
 72
1
 11
9100.0
 21
16150.0
 31
0.0
100
AcDbAttribute
  2
ITEM
 70
1
 74
2
  0
SEQEND
  5
E3
330
E2
100
AcDbEntity
  8
A-FURN-E-N
  0
INSERT
  5
EC
330
17
100
AcDbEntity
  8
A-FURN-E-N
100
AcDbBlockReference
 66
1
  2
ARCH_SINGLE_BED
 10
3100.0
 20
18700.0
 30
0.0
 50
270.0
  0
ATTRIB
  5
EE
330
17
100
AcDbEntity
  8
0
 62
0
100
AcDbText
 10
4100.0
 20
18250.0
 30
0.0
 40
100.0
  1
single_bed
 50
-90.00000000000001
 72
1
 11
4100.0
 21
18250.0
 31
0.0
100
AcDbAttribute
  2
ITEM
 70
1
 74
2
  0
SEQEND
  5
ED
330
EC
100
AcDbEntity
  8
A-FURN-E-N
  0
INSERT
  5
F4
330
17
100
AcDbEntity
  8
A-FURN-E-N
100
AcDbBlockReference
 66
1
  2
ARCH_NIGHTSTAND
 10
3100.0
 20
19300.0
 30
0.0
 50
270.0
  0
ATTRIB
  5
F6
330
17
100
AcDbEntity
  8
0
 62
0
100
AcDbText
 10
3300.0
 20
19050.0
 30
0.0
 40
100.0
  1
nightstand
 50
-90.00000000000001
 72
1
 11
3300.0
 21
19050.0
 31
0.0
100
AcDbAttribute
  2
ITEM
 70
1
 74
2
  0
SEQEND
  5
F5
330
F4
100
AcDbEntity
  8
A-FURN-E-N
  0
INSERT
  5
FD
330
17
100
AcDbEntity
  8
A-FURN-E-N
100
AcDbBlockReference
 66
1
  2
ARCH_DESK
 10
7600.0
 20
20900.0
 30
0.0
 50
180.0
  0
ATTRIB
  5
FF
330
17
100
AcDbEntity
  8
0
 62
0
100
AcDbText
 10
6900.0
 20
20550.0
 30
0.0
 40
100.0
  1
desk
 50
180.0
 72
1
 11
6900.0
 21
20550.0
 31
0.0
100
AcDbAttribute
  2
ITEM
 70
1
 74
2
  0
SEQEND
  5
FE
330
FD
100
AcDbEntity
  8
A-FURN-E-N
  0
INSERT
  5
100
330
17
100
AcDbEntity
  8
A-FURN-E-N
100
AcDbBlockReference
 66
1
  2
ARCH_WARDROBE
 10
5800.0
 20
16550.0
 30
0.0
  0
ATTRIB
  5
102
330
17
100
AcDbEntity
  8
0
 62
0
100
AcDbText
 10
6400.0
 20
16850.0
 30
0.0
 40
100.0
  1
wardrobe
 72
1
 11
6400.0
 21
16850.0
 31
0.0
100
AcDbAttribute
  2
ITEM
 70
1
 74
2
  0
SEQEND
  5
101
330
100
100
AcDbEntity
  8
A-FURN-E-N
  0
INSERT
  5
10A
330
17
100
AcDbEntity
  8
A-SANR-E-N
100
AcDbBlockReference
 66
1
  2
ARCH_BATHTUB
 10
16900.0
 20
20900.0
 30
0.0
 50
180.0
  0
ATTRIB
  5
10C
330
17
100
AcDbEntity
  8
0
 62
0
100
AcDbText
 10
16050.0
 20
20550.0
 30
0.0
 40
100.0
  1
bathtub
 50
180.0
 72
1
 11
16050.0
 21
20550.0
 31
0.0
100
AcDbAttribute
  2
ITEM
 70
1
 74
2
  0
SEQEND
  5
10B
330
10A
100
AcDbEntity
  8
A-SANR-E-N
  0
INSERT
  5
115
330
17
100
AcDbEntity
  8
A-SANR-E-N
100
AcDbBlockReference
 66
1
  2
ARCH_WC
 10
16900.0
 20
18300.0
 30
0.0
 50
90.0
  0
ATTRIB
  5
117
330
17
100
AcDbEntity
  8
0
 62
0
100
AcDbText
 10
16550.0
 20
18490.0
 30
0.0
 40
100.0
  1
wc
 50
90.0
 72
1
 11
16550.0
 21
18490.0
 31
0.0
100
AcDbAttribute
  2
ITEM
 70
1
 74
2
  0
SEQEND
  5
116
330
115
100
AcDbEntity
  8
A-SANR-E-N
  0
INSERT
  5
121
330
17
100
AcDbEntity
  8
A-SANR-E-N
100
AcDbBlockReference
 66
1
  2
ARCH_WALL_BASIN
 10
14600.0
 20
18050.0
 30
0.0
  0
ATTRIB
  5
123
330
17
100
AcDbEntity
  8
0
 62
0
100
AcDbText
 10
14875.0
 20
18275.0
 30
0.0
 40
100.0
  1
wall_basin
 72
1
 11
14875.0
 21
18275.0
 31
0.0
100
AcDbAttribute
  2
ITEM
 70
1
 74
2
  0
SEQEND
  5
122
330
121
100
AcDbEntity
  8
A-SANR-E-N
  0
INSERT
  5
12C
330
17
100
AcDbEntity
  8
A-FURN-E-N
100
AcDbBlockReference
 66
1
  2
ARCH_KITCHEN_COUNTER
 10
13400.0
 20
20900.0
 30
0.0
 50
180.0
  0
ATTRIB
  5
12E
330
17
100
AcDbEntity
  8
0
 62
0
100
AcDbText
 10
12200.0
 20
20600.0
 30
0.0
 40
100.0
  1
kitchen_counter
 50
180.0
 72
1
 11
12200.0
 21
20600.0
 31
0.0
100
AcDbAttribute
  2
ITEM
 70
1
 74
2
  0
SEQEND
  5
12D
330
12C
100
AcDbEntity
  8
A-FURN-E-N
  0
INSERT
  5
135
330
17
100
AcDbEntity
  8
A-FURN-E-N
100
AcDbBlockReference
 66
1
  2
ARCH_FRIDGE
 10
10050.0
 20
20900.0
 30
0.0
 50
270.0
  0
ATTRIB
  5
137
330
17
100
AcDbEntity
  8
0
 62
0
100
AcDbText
 10
10375.0
 20
20600.0
 30
0.0
 40
100.0
  1
fridge
 50
-90.00000000000001
 72
1
 11
10375.0
 21
20600.0
 31
0.0
100
AcDbAttribute
  2
ITEM
 70
1
 74
2
  0
SEQEND
  5
136
330
135
100
AcDbEntity
  8
A-FURN-E-N
  0
INSERT
  5
145
330
17
100
AcDbEntity
  8
A-FURN-E-N
100
AcDbBlockReference
 66
1
  2
ARCH_DINING_TABLE_4
 10
11000.0
 20
16400.0
 30
0.0
  0
ATTRIB
  5
147
330
17
100
AcDbEntity
  8
0
 62
0
100
AcDbText
 10
11700.0
 20
17250.0
 30
0.0
 40
100.0
  1
dining_table_4
 72
1
 11
11700.0
 21
17250.0
 31
0.0
100
AcDbAttribute
  2
ITEM
 70
1
 74
2
  0
SEQEND
  5
146
330
145
100
AcDbEntity
  8
A-FURN-E-N
  0
INSERT
  5
152
330
17
100
AcDbEntity
  8
A-FURN-E-N
100
AcDbBlockReference
 66
1
  2
ARCH_SOFA_3_SEAT
 10
12200.0
 20
16200.0
 30
0.0
 50
270.0
  0
ATTRIB
  5
154
330
17
100
AcDbEntity
  8
0
 62
0
100
AcDbText
 10
12650.0
 20
15100.0
 30
0.0
 40
100.0
  1
sofa_3_seat
 50
-90.00000000000001
 72
1
 11
12650.0
 21
15100.0
 31
0.0
100
AcDbAttribute
  2
ITEM
 70
1
 74
2
  0
SEQEND
  5
153
330
152
100
AcDbEntity
  8
A-FURN-E-N
  0
INSERT
  5
15A
330
17
100
AcDbEntity
  8
A-FURN-E-N
100
AcDbBlockReference
 66
1
  2
ARCH_COFFEE_TABLE
 10
13500.0
 20
15650.0
 30
0.0
 50
270.0
  0
ATTRIB
  5
15C
330
17
100
AcDbEntity
  8
0
 62
0
100
AcDbText
 10
13800.0
 20
15100.0
 30
0.0
 40
100.0
  1
coffee_table
 50
-90.00000000000001
 72
1
 11
13800.0
 21
15100.0
 31
0.0
100
AcDbAttribute
  2
ITEM
 70
1
 74
2
  0
SEQEND
  5
15B
330
15A
100
AcDbEntity
  8
A-FURN-E-N
  0
INSERT
  5
165
330
17
100
AcDbEntity
  8
A-FURN-E-N
100
AcDbBlockReference
 66
1
  2
ARCH_ARMCHAIR
 10
15800.0
 20
14650.0
 30
0.0
 50
90.0
  0
ATTRIB
  5
167
330
17
100
AcDbEntity
  8
0
 62
0
100
AcDbText
 10
15350.0
 20
15100.0
 30
0.0
 40
100.0
  1
armchair
 50
90.0
 72
1
 11
15350.0
 21
15100.0
 31
0.0
100
AcDbAttribute
  2
ITEM
 70
1
 74
2
  0
SEQEND
  5
166
330
165
100
AcDbEntity
  8
A-FURN-E-N
  0
INSERT
  5
16E
330
17
100
AcDbEntity
  8
A-FURN-E-N
100
AcDbBlockReference
 66
1
  2
ARCH_BOOKSHELF
 10
16900.0
 20
16000.0
 30
0.0
 50
90.0
  0
ATTRIB
  5
170
330
17
100
AcDbEntity
  8
0
 62
0
100
AcDbText
 10
16750.0
 20
16400.0
 30
0.0
 40
100.0
  1
bookshelf
 50
90.0
 72
1
 11
16750.0
 21
16400.0
 31
0.0
100
AcDbAttribute
  2
ITEM
 70
1
 74
2
  0
SEQEND
  5
16F
330
16E
100
AcDbEntity
  8
A-FURN-E-N
  0
INSERT
  5
177
330
17
100
AcDbEntity
  8
A-SANR-E-N
100
AcDbBlockReference
 66
1
  2
ARCH_WASHING_MACHINE
 10
-100.0
 20
18900.0
 30
0.0
 50
180.0
  0
ATTRIB
  5
179
330
17
100
AcDbEntity
  8
0
 62
0
100
AcDbText
 10
-400.00000000000006
 20
18600.0
 30
0.0
 40
100.0
  1
washing_machine
 50
180.0
 72
1
 11
-400.00000000000006
 21
18600.0
 31
0.0
100
AcDbAttribute
  2
ITEM
 70
1
 74
2
  0
SEQEND
  5
178
330
177
100
AcDbEntity
  8
A-SANR-E-N
  0
INSERT
  5
1B1
330
17
100
AcDbEntity
  8
SITIO
100
AcDbBlockReference
  2
SITIO_AUTO
 10
-3000.0
 20
6500.0
 30
0.0
 50
90.0
  0
INSERT
  5
1B3
330
17
100
AcDbEntity
  8
SITIO
100
AcDbBlockReference
  2
SITIO_SUV
 10
-6900.0
 20
3500.0
 30
0.0
 50
90.0
  0
INSERT
  5
1B5
330
17
100
AcDbEntity
  8
SITIO
100
AcDbBlockReference
  2
SITIO_ARBOL
 10
17500.0
 20
7000.0
 30
0.0
  0
INSERT
  5
1B7
330
17
100
AcDbEntity
  8
SITIO
100
AcDbBlockReference
  2
SITIO_ARBOL
 10
-6500.0
 20
27000.0
 30
0.0
  0
INSERT
  5
1B9
330
17
100
AcDbEntity
  8
SITIO
100
AcDbBlockReference
  2
SITIO_ARBOL
 10
18000.0
 20
29000.0
 30
0.0
  0
INSERT
  5
1BB
330
17
100
AcDbEntity
  8
SITIO
100
AcDbBlockReference
  2
SITIO_PALMERA
 10
8000.0
 20
6500.0
 30
0.0
  0
INSERT
  5
1BD
330
17
100
AcDbEntity
  8
SITIO
100
AcDbBlockReference
  2
SITIO_PALMERA
 10
19000.0
 20
22500.0
 30
0.0
  0
INSERT
  5
1BF
330
17
100
AcDbEntity
  8
SITIO
100
AcDbBlockReference
  2
SITIO_PINO
 10
-7600.0
 20
21500.0
 30
0.0
  0
INSERT
  5
1C1
330
17
100
AcDbEntity
  8
SITIO
100
AcDbBlockReference
  2
SITIO_PINO
 10
3000.0
 20
30000.0
 30
0.0
  0
INSERT
  5
1C3
330
17
100
AcDbEntity
  8
SITIO
100
AcDbBlockReference
  2
SITIO_ARBUSTO
 10
4500.0
 20
10800.0
 30
0.0
  0
INSERT
  5
1C5
330
17
100
AcDbEntity
  8
SITIO
100
AcDbBlockReference
  2
SITIO_ARBUSTO
 10
7000.0
 20
10800.0
 30
0.0
  0
INSERT
  5
1C7
330
17
100
AcDbEntity
  8
SITIO
100
AcDbBlockReference
  2
SITIO_ARBUSTO
 10
9500.0
 20
10800.0
 30
0.0
  0
INSERT
  5
1C9
330
17
100
AcDbEntity
  8
SITIO
100
AcDbBlockReference
  2
SITIO_MACETA
 10
10700.0
 20
11300.0
 30
0.0
  0
INSERT
  5
1CB
330
17
100
AcDbEntity
  8
SITIO
100
AcDbBlockReference
  2
SITIO_MACETA
 10
14300.0
 20
11300.0
 30
0.0
  0
INSERT
  5
1CD
330
17
100
AcDbEntity
  8
SITIO
100
AcDbBlockReference
  2
SITIO_REPOSERA
 10
3800.0
 20
25200.0
 30
0.0
  0
INSERT
  5
1CF
330
17
100
AcDbEntity
  8
SITIO
100
AcDbBlockReference
  2
SITIO_REPOSERA
 10
3800.0
 20
26800.0
 30
0.0
  0
INSERT
  5
1D1
330
17
100
AcDbEntity
  8
SITIO
100
AcDbBlockReference
  2
SITIO_PARRILLA
 10
1000.0
 20
23200.0
 30
0.0
  0
INSERT
  5
1D3
330
17
100
AcDbEntity
  8
SITIO
100
AcDbBlockReference
  2
SITIO_MESA_JARDIN
 10
17000.0
 20
26500.0
 30
0.0
  0
INSERT
  5
1D5
330
17
100
AcDbEntity
  8
SITIO
100
AcDbBlockReference
  2
SITIO_PERSONA
 10
14800.0
 20
9000.0
 30
0.0
  0
INSERT
  5
1D7
330
17
100
AcDbEntity
  8
SITIO
100
AcDbBlockReference
  2
SITIO_PERSONA
 10
4800.0
 20
23800.0
 30
0.0
  0
INSERT
  5
1D9
330
17
100
AcDbEntity
  8
SITIO
100
AcDbBlockReference
  2
SITIO_FAROLA
 10
15500.0
 20
800.0
 30
0.0
  0
LWPOLYLINE
  5
1DC
330
17
100
AcDbEntity
  8
SITIO-PAVIMENTO
100
AcDbPolyline
 90
6
 70
1
 10
-8600.0
 20
0.0
 10
-1000.0
 20
0.0
 10
-1000.0
 20
12850.0
 10
-5000.0
 20
12850.0
 10
-5000.0
 20
7000.0
 10
-8600.0
 20
7000.0
  0
LWPOLYLINE
  5
1DD
330
17
100
AcDbEntity
  8
SITIO-PAVIMENTO
100
AcDbPolyline
 90
8
 70
1
 10
11900.0
 20
0.0
 10
13100.0
 20
0.0
 10
13100.0
 20
10600.0
 10
14200.0
 20
10600.0
 10
14200.0
 20
11850.0
 10
10800.0
 20
11850.0
 10
10800.0
 20
10600.0
 10
11900.0
 20
10600.0
  0
LWPOLYLINE
  5
1DF
330
17
100
AcDbEntity
  8
SITIO-DECK
100
AcDbPolyline
 90
4
 70
1
 10
10100.0
 20
21150.0
 10
16900.0
 20
21150.0
 10
16900.0
 20
23400.0
 10
10100.0
 20
23400.0
  0
LWPOLYLINE
  5
1E1
330
17
100
AcDbEntity
  8
SITIO-PILETA
100
AcDbPolyline
 90
4
 70
1
 10
6000.0
 20
24200.0
 10
14000.0
 20
24200.0
 10
14000.0
 20
28200.0
 10
6000.0
 20
28200.0
  0
LWPOLYLINE
  5
1E3
330
17
100
AcDbEntity
  8
SITIO-CERCO
100
AcDbPolyline
 90
4
 70
0
 10
-9000.0
 20
0.0
 10
-9000.0
 20
32000.0
 10
21000.0
 20
32000.0
 10
21000.0
 20
0.0
  0
ENDSEC
  0
SECTION
  2
OBJECTS
  0
DICTIONARY
  5
A
330
0
100
AcDbDictionary
281
1
  3
ACAD_COLOR
350
B
  3
ACAD_GROUP
350
C
  3
ACAD_LAYOUT
350
D
  3
ACAD_MATERIAL
350
E
  3
ACAD_MLEADERSTYLE
350
F
  3
ACAD_MLINESTYLE
350
10
  3
ACAD_PLOTSETTINGS
350
11
  3
ACAD_PLOTSTYLENAME
350
12
  3
ACAD_SCALELIST
350
14
  3
ACAD_TABLESTYLE
350
15
  3
ACAD_VISUALSTYLE
350
16
  3
EZDXF_META
350
2D
  0
DICTIONARY
  5
B
330
A
100
AcDbDictionary
281
1
  0
DICTIONARY
  5
C
330
A
100
AcDbDictionary
281
1
  0
DICTIONARY
  5
D
330
A
100
AcDbDictionary
281
1
  3
Model
350
1A
  3
Layout1
350
1E
  0
DICTIONARY
  5
E
330
A
100
AcDbDictionary
281
1
  3
ByBlock
350
1F
  3
ByLayer
350
20
  3
Global
350
21
  0
DICTIONARY
  5
F
330
A
100
AcDbDictionary
281
1
  3
Standard
350
2C
  0
DICTIONARY
  5
10
330
A
100
AcDbDictionary
281
1
  3
Standard
350
22
  0
DICTIONARY
  5
11
330
A
100
AcDbDictionary
281
1
  0
ACDBDICTIONARYWDFLT
  5
12
330
A
100
AcDbDictionary
281
1
  3
Normal
350
13
100
AcDbDictionaryWithDefault
340
13
  0
ACDBPLACEHOLDER
  5
13
330
12
  0
DICTIONARY
  5
14
330
A
100
AcDbDictionary
281
1
  0
DICTIONARY
  5
15
330
A
100
AcDbDictionary
281
1
  0
DICTIONARY
  5
16
330
A
100
AcDbDictionary
281
1
  0
LAYOUT
  5
1A
330
D
100
AcDbPlotSettings
  1

  4
A3
  6

 40
7.5
 41
20.0
 42
7.5
 43
20.0
 44
420.0
 45
297.0
 46
0.0
 47
0.0
 48
0.0
 49
0.0
140
0.0
141
0.0
142
1.0
143
1.0
 70
1024
 72
1
 73
0
 74
5
  7

 75
16
 76
0
 77
2
 78
300
147
1.0
148
0.0
149
0.0
100
AcDbLayout
  1
Model
 70
1
 71
0
 10
0.0
 20
0.0
 11
420.0
 21
297.0
 12
0.0
 22
0.0
 32
0.0
 14
1e+20
 24
1e+20
 34
1e+20
 15
-1e+20
 25
-1e+20
 35
-1e+20
146
0.0
 13
0.0
 23
0.0
 33
0.0
 16
1.0
 26
0.0
 36
0.0
 17
0.0
 27
1.0
 37
0.0
 76
1
330
17
  0
LAYOUT
  5
1E
330
D
100
AcDbPlotSettings
  1

  4
A3
  6

 40
7.5
 41
20.0
 42
7.5
 43
20.0
 44
420.0
 45
297.0
 46
0.0
 47
0.0
 48
0.0
 49
0.0
140
0.0
141
0.0
142
1.0
143
1.0
 70
0
 72
1
 73
0
 74
5
  7

 75
16
 76
0
 77
2
 78
300
147
1.0
148
0.0
149
0.0
100
AcDbLayout
  1
Layout1
 70
1
 71
1
 10
0.0
 20
0.0
 11
420.0
 21
297.0
 12
0.0
 22
0.0
 32
0.0
 14
1e+20
 24
1e+20
 34
1e+20
 15
-1e+20
 25
-1e+20
 35
-1e+20
146
0.0
 13
0.0
 23
0.0
 33
0.0
 16
1.0
 26
0.0
 36
0.0
 17
0.0
 27
1.0
 37
0.0
 76
1
330
1B
  0
MATERIAL
  5
1F
102
{ACAD_REACTORS
330
E
102
}
330
E
100
AcDbMaterial
  1
ByBlock
  2

 70
0
 40
1.0
 71
1
 41
1.0
 91
-1023410177
 42
1.0
 72
1
  3

 73
1
 74
1
 75
1
 44
0.5
 73
0
 45
1.0
 46
1.0
 77
1
  4

 78
1
 79
1
170
1
 48
1.0
171
1
  6

172
1
173
1
174
1
140
1.0
141
1.0
175
1
  7

176
1
177
1
178
1
143
1.0
179
1
  8

270
1
271
1
272
1
145
1.0
146
1.0
273
1
  9

274
1
275
1
276
1
 42
1.0
 72
1
  3

 73
1
 74
1
 75
1
 94
63
  0
MATERIAL
  5
20
102
{ACAD_REACTORS
330
E
102
}
330
E
100
AcDbMaterial
  1
ByLayer
  2

 70
0
 40
1.0
 71
1
 41
1.0
 91
-1023410177
 42
1.0
 72
1
  3

 73
1
 74
1
 75
1
 44
0.5
 73
0
 45
1.0
 46
1.0
 77
1
  4

 78
1
 79
1
170
1
 48
1.0
171
1
  6

172
1
173
1
174
1
140
1.0
141
1.0
175
1
  7

176
1
177
1
178
1
143
1.0
179
1
  8

270
1
271
1
272
1
145
1.0
146
1.0
273
1
  9

274
1
275
1
276
1
 42
1.0
 72
1
  3

 73
1
 74
1
 75
1
 94
63
  0
MATERIAL
  5
21
102
{ACAD_REACTORS
330
E
102
}
330
E
100
AcDbMaterial
  1
Global
  2

 70
0
 40
1.0
 71
1
 41
1.0
 91
-1023410177
 42
1.0
 72
1
  3

 73
1
 74
1
 75
1
 44
0.5
 73
0
 45
1.0
 46
1.0
 77
1
  4

 78
1
 79
1
170
1
 48
1.0
171
1
  6

172
1
173
1
174
1
140
1.0
141
1.0
175
1
  7

176
1
177
1
178
1
143
1.0
179
1
  8

270
1
271
1
272
1
145
1.0
146
1.0
273
1
  9

274
1
275
1
276
1
 42
1.0
 72
1
  3

 73
1
 74
1
 75
1
 94
63
  0
MLINESTYLE
  5
22
102
{ACAD_REACTORS
330
10
102
}
330
10
100
AcDbMlineStyle
  2
Standard
 70
0
  3

 62
256
 51
90.0
 52
90.0
 71
2
 49
0.5
 62
256
  6
BYLAYER
 49
-0.5
 62
256
  6
BYLAYER
  0
MLEADERSTYLE
  5
2C
102
{ACAD_REACTORS
330
F
102
}
330
F
100
AcDbMLeaderStyle
179
2
170
2
171
1
172
0
 90
2
 40
0.0
 41
0.0
173
1
 91
-1056964608
 92
-2
290
1
 42
2.0
291
1
 43
8.0
  3
Standard
 44
4.0
300

342
29
174
1
175
1
176
0
178
1
 93
-1056964608
 45
4.0
292
0
297
0
 46
4.0
 94
-1056964608
 47
1.0
 49
1.0
140
1.0
294
1
141
0.0
177
0
142
1.0
295
0
296
0
143
3.75
271
0
272
9
273
9
  0
DICTIONARY
  5
2D
330
A
100
AcDbDictionary
280
1
281
1
  3
CREATED_BY_EZDXF
350
2E
  3
WRITTEN_BY_EZDXF
350
31
  0
DICTIONARYVAR
  5
2E
330
2D
100
DictionaryVariables
280
0
  1
1.4.4 @ 2026-10-08T16:25:30.085535+00:00
  0
DICTIONARYVAR
  5
31
330
2D
100
DictionaryVariables
280
0
  1
1.4.4 @ 2026-10-08T16:25:30.308282+00:00
  0
ENDSEC
  0
EOF
